<?xml version="1.0" encoding="UTF-8" standalone="no"?>
<!-- Created with Inkscape (http://www.inkscape.org/) -->

<svg
   width="268.27838mm"
   height="228.0209mm"
   viewBox="0 0 268.27838 228.0209"
   version="1.1"
   id="svg1"
   inkscape:version="1.4.2 (aebcc52d83, 2025-06-02)"
   sodipodi:docname="puerta-and-enable.svg"
   xmlns:inkscape="http://www.inkscape.org/namespaces/inkscape"
   xmlns:sodipodi="http://sodipodi.sourceforge.net/DTD/sodipodi-0.dtd"
   xmlns="http://www.w3.org/2000/svg"
   xmlns:svg="http://www.w3.org/2000/svg">
  <sodipodi:namedview
     id="namedview1"
     pagecolor="#ffffff"
     bordercolor="#000000"
     borderopacity="0.25"
     inkscape:showpageshadow="2"
     inkscape:pageopacity="0.0"
     inkscape:pagecheckerboard="0"
     inkscape:deskcolor="#d1d1d1"
     inkscape:document-units="mm"
     inkscape:zoom="0.90855157"
     inkscape:cx="506.8507"
     inkscape:cy="430.90565"
     inkscape:window-width="1866"
     inkscape:window-height="1011"
     inkscape:window-x="54"
     inkscape:window-y="32"
     inkscape:window-maximized="1"
     inkscape:current-layer="layer7"
     showguides="true" />
  <defs
     id="defs1" />
  <g
     inkscape:groupmode="layer"
     id="layer7"
     inkscape:label="Back"
     transform="translate(13.337312,-20.637499)">
    <rect
       style="display:inline;fill:#ffffff;stroke-width:0.793753;stroke-linecap:round"
       id="rect1"
       width="268.27838"
       height="228.0209"
       x="-13.337312"
       y="20.637499" />
    <rect
       style="display:inline;fill:#ffffff;stroke:#000000;stroke-width:1.05833;stroke-linecap:round;stroke-dasharray:none;stroke-dashoffset:0;stroke-opacity:1"
       id="rect21"
       width="263.07523"
       height="221.35153"
       x="-10.735734"
       y="23.972191" />
    <rect
       style="display:inline;fill:#e4e4e4;fill-opacity:1;stroke:#777777;stroke-width:0.505555;stroke-linejoin:round;stroke-miterlimit:4;stroke-dasharray:none;stroke-opacity:1"
       id="rect861-6"
       width="40.354149"
       height="26.797302"
       x="80.40728"
       y="61.66098"
       ry="2.0717244"
       rx="2.0717244" />
    <g
       id="layer3-6"
       inkscape:label="symbol"
       style="display:inline"
       transform="matrix(0.37872951,0,0,0.37872951,62.648803,23.817157)">
      <g
         id="g840"
         transform="matrix(0.26148165,0,0,0.26148165,56.33182,110.16083)">
        <path
           d="M 174.65599,190.04526 H 78.303569 V 4 h 96.352421 c 0,0 87.46328,8.62453 87.46328,91.94023 0,83.31075 -87.46328,94.10503 -87.46328,94.10503 z"
           id="path6-2"
           inkscape:connector-curvature="0"
           style="fill:none;stroke:#000000;stroke-width:8;stroke-linejoin:round;stroke-miterlimit:4;stroke-dasharray:none" />
        <path
           sodipodi:nodetypes="cccccc"
           d="M 4.05697,45.66778 H 78.074705 M 4.05697,144.81248 H 78.074705 M 262.70748,94.77839 h 69.32556"
           id="path8-3-6"
           inkscape:connector-curvature="0"
           style="fill:none;stroke:#000000;stroke-width:8;stroke-linecap:round;stroke-miterlimit:4;stroke-dasharray:none" />
        <text
           id="text4142-5-1"
           y="114.58738"
           x="92.894035"
           style="font-style:normal;font-weight:normal;line-height:0%;font-family:sans-serif;letter-spacing:0px;word-spacing:0px;fill:#0000ff;fill-opacity:1;stroke:none;stroke-width:1px;stroke-linecap:butt;stroke-linejoin:miter;stroke-opacity:1"
           xml:space="preserve"><tspan
             style="font-style:normal;font-variant:normal;font-weight:bold;font-stretch:normal;font-size:58.0538px;line-height:1.25;font-family:sans-serif;-inkscape-font-specification:'sans-serif Bold'"
             y="114.58738"
             x="92.894035"
             id="tspan4144-6-8"
             sodipodi:role="line">AND</tspan></text>
      </g>
    </g>
    <path
       style="display:inline;fill:none;stroke:#777777;stroke-width:0.793749;stroke-linecap:butt;stroke-linejoin:miter;stroke-miterlimit:4;stroke-dasharray:none;stroke-opacity:1"
       d="m 121.01422,74.992079 h 28.16045"
       id="path865-3-6"
       inkscape:connector-curvature="0"
       sodipodi:nodetypes="cc" />
    <path
       d="m 59.750543,68.191137 h 20.65674"
       fill="none"
       stroke="#777777"
       stroke-width="0.399952"
       id="path35-8"
       style="display:inline;stroke-width:0.79375;stroke-dasharray:none"
       sodipodi:nodetypes="cc" />
    <path
       d="m 59.750543,94.450192 h 7.69691 v -12.65718 h 12.95983"
       fill="none"
       stroke="#777777"
       stroke-width="0.399952"
       id="path8"
       style="display:inline;stroke-width:0.79375;stroke-dasharray:none"
       sodipodi:nodetypes="cccc" />
    <text
       x="139.86417"
       y="134.57176"
       fill="#000000"
       font-family="Ubuntu"
       font-size="4.9389px"
       stroke-width="0.39688"
       style="font-size:6.35px;line-height:0.9;display:inline"
       xml:space="preserve"
       id="text58"><tspan
         sodipodi:role="line"
         id="tspan61"
         x="139.86417"
         y="134.57176"
         style="font-size:6.35px">Circuito equivalente: <tspan
   style="font-style:normal;font-variant:normal;font-weight:bold;font-stretch:normal;font-family:Ubuntu;-inkscape-font-specification:'Ubuntu Bold'"
   id="tspan46">ax-bit0</tspan></tspan></text>
    <path
       id="circle16"
       style="display:inline;fill:#008000;fill-opacity:1;stroke:none;stroke-width:0.264584;stroke-linecap:round;stroke-opacity:1"
       d="m 27.991833,102.88991 c -4.66113,0 -8.43972,-3.778588 -8.43972,-8.439718 0,-4.66112 3.77859,-8.43972 8.43972,-8.43972 h 23.31899 c 4.66113,0 8.43972,3.7786 8.43972,8.43972 0,4.66113 -3.77859,8.439718 -8.43972,8.439718 z"
       sodipodi:nodetypes="csccscc" />
    <text
       xml:space="preserve"
       style="font-weight:bold;font-size:5.44141px;line-height:1;font-family:Ubuntu;-inkscape-font-specification:'Ubuntu Bold';text-align:center;writing-mode:lr-tb;direction:ltr;text-anchor:middle;display:inline;fill:#ffffff;fill-opacity:1;stroke:none;stroke-width:0.264583;stroke-linecap:round;stroke-opacity:1"
       x="39.839195"
       y="96.485153"
       id="text17-1"><tspan
         sodipodi:role="line"
         id="tspan17-2"
         style="fill:#ffffff;stroke:none;stroke-width:0.264583"
         x="39.839195"
         y="96.485153">enable</tspan></text>
    <g
       id="g45">
      <path
         id="path9-0"
         style="display:inline;fill:#000080;fill-opacity:1;stroke:none;stroke-width:0.264584;stroke-linecap:round;stroke-opacity:1"
         d="m 28.000993,76.23398 c -4.66113,0 -8.43972,-3.778591 -8.43972,-8.439718 0,-4.661127 3.77859,-8.439718 8.43972,-8.439718 h 23.31899 c 4.66113,-10e-7 8.43972,3.77859 8.43972,8.439718 0,4.661128 -3.77859,8.439719 -8.43972,8.439718 z"
         sodipodi:nodetypes="csccscc" />
      <text
         xml:space="preserve"
         style="font-weight:bold;font-size:5.44141px;line-height:1;font-family:Ubuntu;-inkscape-font-specification:'Ubuntu Bold';text-align:center;writing-mode:lr-tb;direction:ltr;text-anchor:middle;display:inline;fill:#ffffff;fill-opacity:1;stroke:none;stroke-width:0.264583;stroke-linecap:round;stroke-opacity:1"
         x="39.848351"
         y="69.829208"
         id="text18"><tspan
           sodipodi:role="line"
           id="tspan18"
           style="fill:#ffffff;stroke:none;stroke-width:0.264583"
           x="39.848351"
           y="69.829208">data_in</tspan></text>
    </g>
    <g
       id="g28">
      <path
         id="path1"
         style="display:inline;fill:#000080;fill-opacity:1;stroke:none;stroke-width:0.264584;stroke-linecap:round;stroke-opacity:1"
         d="m 157.61441,82.412522 c -4.66113,0 -8.43972,-3.778587 -8.43972,-8.439717 0,-4.661117 3.77859,-8.439717 8.43972,-8.439717 h 23.31899 c 4.66113,0 8.43972,3.77859 8.43972,8.439717 0,4.66113 -3.77859,8.439717 -8.43972,8.439717 z"
         sodipodi:nodetypes="csccscc" />
      <text
         xml:space="preserve"
         style="font-weight:bold;font-size:5.44141px;line-height:1;font-family:Ubuntu;-inkscape-font-specification:'Ubuntu Bold';text-align:center;writing-mode:lr-tb;direction:ltr;text-anchor:middle;display:inline;fill:#ffffff;fill-opacity:1;stroke:none;stroke-width:0.264583;stroke-linecap:round;stroke-opacity:1"
         x="169.46176"
         y="76.007767"
         id="text3"><tspan
           sodipodi:role="line"
           id="tspan3"
           style="fill:#ffffff;stroke:none;stroke-width:0.264583"
           x="169.46176"
           y="76.007767">data_out</tspan></text>
    </g>
    <g
       id="g44"
       transform="translate(-122.96219,-80.786597)">
      <rect
         x="132.9584"
         y="284.93738"
         width="39.226002"
         height="26.048"
         rx="2.0137999"
         ry="2.0137999"
         fill="#e3e3e3"
         stroke="#777777"
         stroke-linejoin="round"
         stroke-width="0.49142"
         id="rect35" />
      <g
         transform="matrix(0.1039,0,0,0.1039,148.49841,288.94738)"
         id="g37">
        <path
           d="M 7.702,32.42 49.971,-0.001 84.179,7.7244 56.846,124.4644 30.239,118.4552 51.26,25.2762 20.023,44.2022 Z"
           fill="#008000"
           fill-rule="evenodd"
           id="path36-3" />
        <path
           d="m 46.13,117.28 21.355,28.257 -17.909,21.368 6.1972,5.5127 m -14.032,-54.45 -12.4,28.26 -28.242,5.5127 2.0667,8.9585"
           fill="none"
           stroke="#008000"
           stroke-linecap="round"
           stroke-linejoin="round"
           stroke-width="2.196"
           id="path37-2" />
      </g>
    </g>
    <text
       x="139.86417"
       y="200.68553"
       fill="#000000"
       font-family="Ubuntu"
       font-size="4.9389px"
       stroke-width="0.39688"
       style="font-size:6.35px;line-height:0.9;display:inline"
       xml:space="preserve"
       id="text48"><tspan
         sodipodi:role="line"
         id="tspan48"
         x="139.86417"
         y="200.68553"
         style="font-size:6.35px">Circuito equivalente: <tspan
   style="font-style:normal;font-variant:normal;font-weight:bold;font-stretch:normal;font-family:Ubuntu;-inkscape-font-specification:'Ubuntu Bold'"
   id="tspan49">input</tspan></tspan></text>
  </g>
  <g
     inkscape:label="Layer 1"
     inkscape:groupmode="layer"
     id="layer1"
     transform="translate(13.337312,-20.637499)">
    <text
       xml:space="preserve"
       style="font-style:normal;font-variant:normal;font-weight:normal;font-stretch:normal;font-size:4.9389px;line-height:0.9;font-family:Ubuntu;-inkscape-font-specification:Ubuntu;text-align:start;writing-mode:lr-tb;direction:ltr;text-anchor:start;white-space:pre;inline-size:109.208;display:inline;fill:#000000;fill-opacity:1;stroke:none;stroke-width:0.251512;stroke-linecap:butt;stroke-linejoin:miter;stroke-dasharray:none"
       x="10.85919"
       y="39.621727"
       id="text4"
       transform="matrix(1.5779541,0,0,1.5779541,53.859734,-23.36704)"><tspan
         x="10.85919"
         y="39.621727"
         id="tspan6">
</tspan><tspan
         x="10.85919"
         y="44.066737"
         id="tspan8"><tspan
           style="font-weight:bold;-inkscape-font-specification:'Ubuntu Bold'"
           id="tspan7">CIRCUITO ORIGINAL</tspan></tspan></text>
    <text
       xml:space="preserve"
       style="font-style:normal;font-variant:normal;font-weight:normal;font-stretch:normal;font-size:4.9389px;line-height:0.9;font-family:Ubuntu;-inkscape-font-specification:Ubuntu;text-align:start;writing-mode:lr-tb;direction:ltr;text-anchor:start;white-space:pre;inline-size:109.208;display:inline;fill:#000000;fill-opacity:1;stroke:none;stroke-width:0.251512;stroke-linecap:butt;stroke-linejoin:miter;stroke-dasharray:none"
       x="10.85919"
       y="39.621727"
       id="text10"
       transform="matrix(1.5779541,0,0,1.5779541,-3.3871968,56.602082)"><tspan
         x="10.85919"
         y="39.621727"
         id="tspan9">
</tspan><tspan
         x="10.85919"
         y="44.066737"
         id="tspan11"><tspan
           style="font-weight:bold;-inkscape-font-specification:'Ubuntu Bold'"
           id="tspan10">PUERTA DESHABILITADA</tspan></tspan></text>
    <path
       id="path15"
       style="display:inline;fill:#008000;fill-opacity:1;stroke:none;stroke-width:0.264584;stroke-linecap:round;stroke-opacity:1"
       d="m 78.206026,163.9702 c -4.661125,0 -8.439715,-3.77859 -8.439715,-8.43972 0,-4.66112 3.77859,-8.43972 8.439715,-8.43972 h 23.318994 c 4.66113,0 8.43972,3.7786 8.43972,8.43972 0,4.66113 -3.77859,8.43972 -8.43972,8.43972 z"
       sodipodi:nodetypes="csccscc" />
    <text
       xml:space="preserve"
       style="font-weight:bold;font-size:5.44141px;line-height:1;font-family:Ubuntu;-inkscape-font-specification:'Ubuntu Bold';text-align:center;writing-mode:lr-tb;direction:ltr;text-anchor:middle;display:inline;fill:#ffffff;fill-opacity:1;stroke:none;stroke-width:0.264583;stroke-linecap:round;stroke-opacity:1"
       x="90.053391"
       y="157.56543"
       id="text16"><tspan
         sodipodi:role="line"
         id="tspan16"
         style="fill:#ffffff;stroke:none;stroke-width:0.264583"
         x="90.053391"
         y="157.56543">enable</tspan></text>
    <rect
       ry="2.0251043"
       y="142.72701"
       x="10.021863"
       height="26.194283"
       width="39.44606"
       id="rect861-2"
       style="fill:#e3e3e3;fill-opacity:1;stroke:#777777;stroke-width:0.494178;stroke-linejoin:round;stroke-miterlimit:4;stroke-dasharray:none;stroke-opacity:1"
       rx="2.0251043" />
    <g
       id="layer1-3"
       inkscape:label="Layer 1"
       style="display:inline"
       transform="matrix(0.11144496,0,0,0.11144496,23.75518,146.09861)">
      <path
         style="fill:none;stroke:#008000;stroke-width:2;stroke-linecap:round;stroke-linejoin:round"
         inkscape:connector-curvature="0"
         id="path6-6-2"
         d="m 69.663915,107.28527 13.49404,29.37368 -12.43879,31.77467 13.78754,4.28259 m -42.76081,-62.91564 c 0,0 -3.59775,26.95639 -8.52446,29.13197 -4.92342,2.17885 -32.22147896,22.40266 -32.22147896,22.40266 l 8.72891556,10.6362"
         inkscape:export-filename="/home/obijuan/develop/FPGAwars/Icestudio-block-icons/Bits/png/0-legs.png"
         inkscape:export-xdpi="90"
         inkscape:export-ydpi="90" />
      <g
         aria-label="o"
         transform="matrix(0.9118541,0,0,1.0966667,-128.06239,35.709923)"
         id="text4142-6"
         style="font-style:normal;font-weight:normal;font-size:12px;line-height:0%;font-family:sans-serif;letter-spacing:0px;word-spacing:0px;display:inline;fill:#008000;fill-opacity:1;stroke:none;stroke-width:1px;stroke-linecap:butt;stroke-linejoin:miter;stroke-opacity:1">
        <path
           d="m 212.31328,-10.227385 q -10.41157,0 -17.41094,7.5243289 -6.91189,7.4368361 -9.71164,21.5230791 -2.79975,14.086242 1.1374,21.610571 3.93715,7.436836 14.34872,7.436836 10.23659,0 17.14847,-7.436836 6.99938,-7.524329 9.79913,-21.610571 2.79975,-14.086243 -1.1374,-21.5230791 -3.93715,-7.5243289 -14.17374,-7.5243289 z m 4.4621,-22.398 q 25.28525,0 36.74672,13.648781 11.54897,13.6487821 6.7369,37.796627 -4.81207,24.147844 -21.78555,37.796626 -16.97349,13.648782 -42.25873,13.648782 -25.37274,0 -36.92171,-13.648782 -11.54896,-13.648782 -6.73689,-37.796626 4.81207,-24.1478449 21.78555,-37.796627 17.06098,-13.648781 42.43371,-13.648781 z"
           style="font-style:italic;font-variant:normal;font-weight:bold;font-stretch:normal;font-size:179.184px;line-height:1.25;font-family:sans-serif;-inkscape-font-specification:'sans-serif Bold Italic';fill:#008000;stroke-width:1px"
           id="path77-3" />
      </g>
    </g>
    <path
       inkscape:connector-curvature="0"
       id="path865-3-6-9"
       d="M 49.467924,155.14637 H 70.078913"
       style="display:inline;fill:none;stroke:#777777;stroke-width:0.768217;stroke-linecap:butt;stroke-linejoin:miter;stroke-miterlimit:4;stroke-dasharray:none;stroke-opacity:1"
       sodipodi:nodetypes="cc" />
    <rect
       ry="2.0251043"
       y="142.72701"
       x="130.63344"
       height="26.194283"
       width="39.44606"
       id="rect16"
       style="fill:#e3e3e3;fill-opacity:1;stroke:#777777;stroke-width:0.494178;stroke-linejoin:round;stroke-miterlimit:4;stroke-dasharray:none;stroke-opacity:1"
       rx="2.0251043" />
    <g
       id="g20"
       inkscape:label="Layer 1"
       style="display:inline"
       transform="matrix(0.11144496,0,0,0.11144496,144.36676,146.09861)">
      <path
         style="fill:none;stroke:#008000;stroke-width:2;stroke-linecap:round;stroke-linejoin:round"
         inkscape:connector-curvature="0"
         id="path17"
         d="m 69.663915,107.28527 13.49404,29.37368 -12.43879,31.77467 13.78754,4.28259 m -42.76081,-62.91564 c 0,0 -3.59775,26.95639 -8.52446,29.13197 -4.92342,2.17885 -32.22147896,22.40266 -32.22147896,22.40266 l 8.72891556,10.6362"
         inkscape:export-filename="/home/obijuan/develop/FPGAwars/Icestudio-block-icons/Bits/png/0-legs.png"
         inkscape:export-xdpi="90"
         inkscape:export-ydpi="90" />
      <g
         aria-label="o"
         transform="matrix(0.9118541,0,0,1.0966667,-128.06239,35.709923)"
         id="g18"
         style="font-style:normal;font-weight:normal;font-size:12px;line-height:0%;font-family:sans-serif;letter-spacing:0px;word-spacing:0px;display:inline;fill:#008000;fill-opacity:1;stroke:none;stroke-width:1px;stroke-linecap:butt;stroke-linejoin:miter;stroke-opacity:1">
        <path
           d="m 212.31328,-10.227385 q -10.41157,0 -17.41094,7.5243289 -6.91189,7.4368361 -9.71164,21.5230791 -2.79975,14.086242 1.1374,21.610571 3.93715,7.436836 14.34872,7.436836 10.23659,0 17.14847,-7.436836 6.99938,-7.524329 9.79913,-21.610571 2.79975,-14.086243 -1.1374,-21.5230791 -3.93715,-7.5243289 -14.17374,-7.5243289 z m 4.4621,-22.398 q 25.28525,0 36.74672,13.648781 11.54897,13.6487821 6.7369,37.796627 -4.81207,24.147844 -21.78555,37.796626 -16.97349,13.648782 -42.25873,13.648782 -25.37274,0 -36.92171,-13.648782 -11.54896,-13.648782 -6.73689,-37.796626 4.81207,-24.1478449 21.78555,-37.796627 17.06098,-13.648781 42.43371,-13.648781 z"
           style="font-style:italic;font-variant:normal;font-weight:bold;font-stretch:normal;font-size:179.184px;line-height:1.25;font-family:sans-serif;-inkscape-font-specification:'sans-serif Bold Italic';fill:#008000;stroke-width:1px"
           id="path18" />
      </g>
    </g>
    <path
       inkscape:connector-curvature="0"
       id="path28"
       d="m 170.0795,155.14637 h 20.61099"
       style="display:inline;fill:none;stroke:#777777;stroke-width:0.768217;stroke-linecap:butt;stroke-linejoin:miter;stroke-miterlimit:4;stroke-dasharray:none;stroke-opacity:1"
       sodipodi:nodetypes="cc" />
    <g
       id="g29"
       transform="translate(41.203198,81.173565)">
      <path
         id="path29"
         style="display:inline;fill:#000080;fill-opacity:1;stroke:none;stroke-width:0.264584;stroke-linecap:round;stroke-opacity:1"
         d="m 157.61441,82.412522 c -4.66113,0 -8.43972,-3.778587 -8.43972,-8.439717 0,-4.661117 3.77859,-8.439717 8.43972,-8.439717 h 23.31899 c 4.66113,0 8.43972,3.77859 8.43972,8.439717 0,4.66113 -3.77859,8.439717 -8.43972,8.439717 z"
         sodipodi:nodetypes="csccscc" />
      <text
         xml:space="preserve"
         style="font-weight:bold;font-size:5.44141px;line-height:1;font-family:Ubuntu;-inkscape-font-specification:'Ubuntu Bold';text-align:center;writing-mode:lr-tb;direction:ltr;text-anchor:middle;display:inline;fill:#ffffff;fill-opacity:1;stroke:none;stroke-width:0.264583;stroke-linecap:round;stroke-opacity:1"
         x="169.46176"
         y="76.007767"
         id="text29"><tspan
           sodipodi:role="line"
           id="tspan29"
           style="fill:#ffffff;stroke:none;stroke-width:0.264583"
           x="169.46176"
           y="76.007767">data_out</tspan></text>
    </g>
    <text
       xml:space="preserve"
       style="font-style:normal;font-variant:normal;font-weight:normal;font-stretch:normal;font-size:4.9389px;line-height:0.9;font-family:Ubuntu;-inkscape-font-specification:Ubuntu;text-align:start;writing-mode:lr-tb;direction:ltr;text-anchor:start;white-space:pre;inline-size:109.208;display:inline;fill:#000000;fill-opacity:1;stroke:none;stroke-width:0.251512;stroke-linecap:butt;stroke-linejoin:miter;stroke-dasharray:none"
       x="10.85919"
       y="39.621727"
       id="text31"
       transform="matrix(1.5779541,0,0,1.5779541,-6.0502267,119.0146)"><tspan
         x="10.85919"
         y="39.621727"
         id="tspan12">
</tspan><tspan
         x="10.85919"
         y="44.066737"
         id="tspan14"><tspan
           style="font-weight:bold;-inkscape-font-specification:'Ubuntu Bold'"
           id="tspan13">PUERTA HABILITADA</tspan></tspan></text>
    <path
       id="path31"
       style="display:inline;fill:#008000;fill-opacity:1;stroke:none;stroke-width:0.264584;stroke-linecap:round;stroke-opacity:1"
       d="m 78.206026,226.38272 c -4.661125,0 -8.439715,-3.77859 -8.439715,-8.43972 0,-4.66112 3.77859,-8.43972 8.439715,-8.43972 h 23.318994 c 4.66113,0 8.43972,3.7786 8.43972,8.43972 0,4.66113 -3.77859,8.43972 -8.43972,8.43972 z"
       sodipodi:nodetypes="csccscc" />
    <text
       xml:space="preserve"
       style="font-weight:bold;font-size:5.44141px;line-height:1;font-family:Ubuntu;-inkscape-font-specification:'Ubuntu Bold';text-align:center;writing-mode:lr-tb;direction:ltr;text-anchor:middle;display:inline;fill:#ffffff;fill-opacity:1;stroke:none;stroke-width:0.264583;stroke-linecap:round;stroke-opacity:1"
       x="90.053391"
       y="219.97795"
       id="text32"><tspan
         sodipodi:role="line"
         id="tspan32"
         style="fill:#ffffff;stroke:none;stroke-width:0.264583"
         x="90.053391"
         y="219.97795">enable</tspan></text>
    <path
       inkscape:connector-curvature="0"
       id="path36"
       d="M 49.467924,217.55889 H 70.078913"
       style="display:inline;fill:none;stroke:#777777;stroke-width:0.768217;stroke-linecap:butt;stroke-linejoin:miter;stroke-miterlimit:4;stroke-dasharray:none;stroke-opacity:1"
       sodipodi:nodetypes="cc" />
    <path
       inkscape:connector-curvature="0"
       id="path42"
       d="m 170.0795,217.55889 h 20.61099"
       style="display:inline;fill:none;stroke:#777777;stroke-width:0.768217;stroke-linecap:butt;stroke-linejoin:miter;stroke-miterlimit:4;stroke-dasharray:none;stroke-opacity:1"
       sodipodi:nodetypes="cc" />
    <g
       id="g43"
       transform="translate(41.203198,143.58608)">
      <path
         id="path43"
         style="display:inline;fill:#000080;fill-opacity:1;stroke:none;stroke-width:0.264584;stroke-linecap:round;stroke-opacity:1"
         d="m 157.61441,82.412522 c -4.66113,0 -8.43972,-3.778587 -8.43972,-8.439717 0,-4.661117 3.77859,-8.439717 8.43972,-8.439717 h 23.31899 c 4.66113,0 8.43972,3.77859 8.43972,8.439717 0,4.66113 -3.77859,8.439717 -8.43972,8.439717 z"
         sodipodi:nodetypes="csccscc" />
      <text
         xml:space="preserve"
         style="font-weight:bold;font-size:5.44141px;line-height:1;font-family:Ubuntu;-inkscape-font-specification:'Ubuntu Bold';text-align:center;writing-mode:lr-tb;direction:ltr;text-anchor:middle;display:inline;fill:#ffffff;fill-opacity:1;stroke:none;stroke-width:0.264583;stroke-linecap:round;stroke-opacity:1"
         x="169.46176"
         y="76.007767"
         id="text43"><tspan
           sodipodi:role="line"
           id="tspan43"
           style="fill:#ffffff;stroke:none;stroke-width:0.264583"
           x="169.46176"
           y="76.007767">data_out</tspan></text>
    </g>
    <g
       id="g46"
       transform="translate(111.07216,149.38052)">
      <path
         id="path45"
         style="display:inline;fill:#000080;fill-opacity:1;stroke:none;stroke-width:0.264584;stroke-linecap:round;stroke-opacity:1"
         d="m 28.000993,76.23398 c -4.66113,0 -8.43972,-3.778591 -8.43972,-8.439718 0,-4.661127 3.77859,-8.439718 8.43972,-8.439718 h 23.31899 c 4.66113,-10e-7 8.43972,3.77859 8.43972,8.439718 0,4.661128 -3.77859,8.439719 -8.43972,8.439718 z"
         sodipodi:nodetypes="csccscc" />
      <text
         xml:space="preserve"
         style="font-weight:bold;font-size:5.44141px;line-height:1;font-family:Ubuntu;-inkscape-font-specification:'Ubuntu Bold';text-align:center;writing-mode:lr-tb;direction:ltr;text-anchor:middle;display:inline;fill:#ffffff;fill-opacity:1;stroke:none;stroke-width:0.264583;stroke-linecap:round;stroke-opacity:1"
         x="39.848351"
         y="69.829208"
         id="text45"><tspan
           sodipodi:role="line"
           id="tspan45"
           style="fill:#ffffff;stroke:none;stroke-width:0.264583"
           x="39.848351"
           y="69.829208">data_in</tspan></text>
    </g>
  </g>
</svg>
