<?xml version="1.0" encoding="UTF-8" standalone="no"?>
<!-- Created with Inkscape (http://www.inkscape.org/) -->

<svg
   width="204.03552mm"
   height="99.389473mm"
   viewBox="0 0 204.03552 99.38947"
   version="1.1"
   id="svg1"
   xml:space="preserve"
   inkscape:version="1.4.3rc (e2afff01a3, 2025-12-13)"
   sodipodi:docname="oscilador-1.svg"
   xmlns:inkscape="http://www.inkscape.org/namespaces/inkscape"
   xmlns:sodipodi="http://sodipodi.sourceforge.net/DTD/sodipodi-0.dtd"
   xmlns="http://www.w3.org/2000/svg"
   xmlns:svg="http://www.w3.org/2000/svg"><sodipodi:namedview
     id="namedview1"
     pagecolor="#ffffff"
     bordercolor="#000000"
     borderopacity="0.25"
     inkscape:showpageshadow="2"
     inkscape:pageopacity="0.0"
     inkscape:pagecheckerboard="0"
     inkscape:deskcolor="#d1d1d1"
     inkscape:document-units="mm"
     inkscape:zoom="1.8167486"
     inkscape:cx="385.57894"
     inkscape:cy="187.97317"
     inkscape:window-width="1866"
     inkscape:window-height="1011"
     inkscape:window-x="54"
     inkscape:window-y="32"
     inkscape:window-maximized="1"
     inkscape:current-layer="layer1"
     showguides="true" /><defs
     id="defs1"><marker
       style="overflow:visible"
       id="Triangle"
       refX="0"
       refY="0"
       orient="auto-start-reverse"
       inkscape:stockid="Triangle arrow"
       markerWidth="1"
       markerHeight="1"
       viewBox="0 0 1 1"
       inkscape:isstock="true"
       inkscape:collect="always"
       preserveAspectRatio="xMidYMid"><path
         transform="scale(0.5)"
         style="fill:context-stroke;fill-rule:evenodd;stroke:context-stroke;stroke-width:1pt"
         d="M 5.77,0 -2.88,5 V -5 Z"
         id="path135" /></marker></defs><g
     inkscape:groupmode="layer"
     id="layer2"
     inkscape:label="Back"
     transform="translate(25.219755,-33.19186)"><rect
       style="fill:#f9f9f9;stroke:none;stroke-width:0.181683;stroke-dasharray:0.363365, 0.72673;stroke-dashoffset:0"
       id="rect26"
       width="204.03552"
       height="99.389473"
       x="-25.219755"
       y="33.19186" /><rect
       style="fill:none;stroke:#000000;stroke-width:0.344113;stroke-dasharray:none;stroke-dashoffset:0"
       id="rect27"
       width="199.66885"
       height="95.022804"
       x="-23.036421"
       y="35.375195" /></g><g
     inkscape:label="Layer 1"
     inkscape:groupmode="layer"
     id="layer1"
     transform="translate(25.219755,-33.19186)"><path
       style="fill:#000080;stroke:#008000;stroke-width:0.79375;stroke-dasharray:none;stroke-dashoffset:0"
       d="m 105.39048,83.143858 h 26.2948"
       id="path19" /><path
       style="fill:#d5d5ff;stroke:none;stroke-width:0.529167;stroke-linecap:round"
       id="path13"
       sodipodi:type="arc"
       sodipodi:cx="61.273075"
       sodipodi:cy="-60.208145"
       sodipodi:rx="23.121546"
       sodipodi:ry="23.121546"
       sodipodi:start="4.1887902"
       sodipodi:end="0"
       sodipodi:arc-type="slice"
       d="m 49.712302,-80.231991 a 23.121546,23.121546 0 0 1 23.121546,0 23.121546,23.121546 0 0 1 11.560773,20.023846 H 61.273075 Z"
       transform="rotate(120.00006)" /><text
       xml:space="preserve"
       style="font-weight:bold;font-size:5.29167px;line-height:1;font-family:Ubuntu;-inkscape-font-specification:'Ubuntu Bold';writing-mode:lr-tb;direction:ltr;fill:#0000ff;stroke:none;stroke-width:0.79375"
       x="17.900446"
       y="49.966354"
       id="text4"><tspan
         sodipodi:role="line"
         id="tspan4"
         style="fill:#0000ff;stroke:none;stroke-width:0.79375"
         x="17.900446"
         y="49.966354">Oscilador</tspan></text><path
       style="fill:none;stroke:#000000;stroke-width:0.529175;stroke-dasharray:none;marker-start:url(#Triangle)"
       id="path8"
       sodipodi:type="arc"
       sodipodi:cx="49.473228"
       sodipodi:cy="63.510963"
       sodipodi:rx="17.394291"
       sodipodi:ry="17.618404"
       sodipodi:start="4.9011636"
       sodipodi:end="5.972985"
       sodipodi:open="true"
       sodipodi:arc-type="arc"
       d="m 52.737362,46.205551 a 17.394291,17.618404 0 0 1 13.29997,11.927405"
       transform="matrix(0.96219393,0.27236526,-0.26490751,0.96427383,0,0)" /><text
       xml:space="preserve"
       style="font-weight:bold;font-size:7.16835px;line-height:1;font-family:Ubuntu;-inkscape-font-specification:'Ubuntu Bold';writing-mode:lr-tb;direction:ltr;fill:#000080;stroke:none;stroke-width:1.07525"
       x="142.98724"
       y="80.951698"
       id="text30"><tspan
         sodipodi:role="line"
         id="tspan30"
         style="fill:#000080;stroke:none;stroke-width:1.07525"
         x="142.98724"
         y="80.951698">1</tspan></text><text
       xml:space="preserve"
       style="font-weight:bold;font-size:7.16835px;line-height:1;font-family:Ubuntu;-inkscape-font-specification:'Ubuntu Bold';writing-mode:lr-tb;direction:ltr;fill:#008000;stroke:none;stroke-width:1.07525"
       x="93.152184"
       y="80.95887"
       id="text31"><tspan
         sodipodi:role="line"
         id="tspan31"
         style="fill:#008000;stroke:none;stroke-width:1.07525"
         x="93.152184"
         y="80.95887">0</tspan></text><path
       style="fill:#000080;stroke:#008000;stroke-width:0.79375;stroke-dasharray:none;stroke-dashoffset:0"
       d="M 79.095675,83.143858 H 105.39048"
       id="path31" /><path
       style="fill:#000080;stroke:#000000;stroke-width:0.79375;stroke-dasharray:none;stroke-dashoffset:0"
       d="m 131.68528,83.143858 v -9.35199"
       id="path33" /><circle
       style="fill:#000000;stroke:none;stroke-width:0.79375"
       id="circle33"
       cx="79.095688"
       cy="83.143852"
       r="1.2740114" /><circle
       style="fill:#000000;stroke:none;stroke-width:0.79375"
       id="circle34"
       cx="131.68529"
       cy="83.143852"
       r="1.2740114" /><path
       style="fill:#000080;stroke:#000080;stroke-width:0.79375;stroke-dasharray:none;stroke-dashoffset:0"
       d="m 131.28841,73.791868 h 26.2948"
       id="path32" /><g
       id="g38"
       transform="translate(-34.51286,-99.12664)"><text
         xml:space="preserve"
         style="font-weight:bold;font-size:5.29167px;line-height:1;font-family:Ubuntu;-inkscape-font-specification:'Ubuntu Bold';writing-mode:lr-tb;direction:ltr;fill:#000000;stroke:none;stroke-width:0.79375"
         x="111.76851"
         y="189.62202"
         id="text37"><tspan
           sodipodi:role="line"
           id="tspan37"
           style="fill:#000000;stroke:none;stroke-width:0.79375"
           x="111.76851"
           y="189.62202">=0</tspan></text><path
         d="m 108.75503,185.45777 v 0.14422 q -0.88533,0.22834 -0.88533,1.6745 0,1.56634 1.10166,1.84274 v -2.32746 q 0,-0.50875 0.0641,-0.74111 0.0641,-0.23635 0.28042,-0.41261 0.22033,-0.18026 0.5288,-0.18026 0.54081,0 1.00148,0.50875 0.4647,0.50875 0.4647,1.32597 0,0.76513 -0.4767,1.36604 -0.47271,0.6009 -1.43013,0.68502 v 1.64647 h -0.43265 v -1.64647 q -0.83324,-0.0721 -1.33799,-0.62092 -0.50076,-0.55282 -0.50076,-1.43414 0,-0.79317 0.45669,-1.29393 0.45669,-0.50475 1.16574,-0.53679 z m 0.64896,3.66146 q 1.26189,-0.18829 1.26189,-1.63044 0,-0.66498 -0.2724,-1.11365 -0.2684,-0.45268 -0.63295,-0.45268 -0.13219,0 -0.22433,0.0961 -0.0881,0.0921 -0.11222,0.22034 -0.02,0.12819 -0.02,0.50475 z"
         id="path37"
         style="stroke-width:0.0216206" /></g><g
       id="g39"
       transform="translate(127.51711,-97.43071)"><text
         xml:space="preserve"
         style="font-weight:bold;font-size:4.56604px;line-height:1;font-family:Ubuntu;-inkscape-font-specification:'Ubuntu Bold';writing-mode:lr-tb;direction:ltr;fill:#000000;stroke:none;stroke-width:0.684906"
         x="1.9359514"
         y="187.73438"
         id="text38"><tspan
           sodipodi:role="line"
           id="tspan38"
           style="fill:#000000;stroke:none;stroke-width:0.684906"
           x="1.9359514"
           y="187.73438">=-120</tspan></text><path
         d="m -0.66431527,184.14115 v 0.12444 q -0.76392003,0.19703 -0.76392003,1.44488 0,1.35156 0.95058003,1.59006 v -2.00831 q 0,-0.43899 0.0553,-0.63948 0.0553,-0.20395 0.24197,-0.35603 0.19012,-0.15555 0.45629,-0.15555 0.46665,0 0.86414997,0.43899 0.40097,0.43899 0.40097,1.14415 0,0.66021 -0.41132,1.17871 -0.40789997,0.51851 -1.23402997,0.59109 v 1.42069 h -0.37332 v -1.42069 q -0.71898003,-0.0622 -1.15452003,-0.53577 -0.43209,-0.47702 -0.43209,-1.23748 0,-0.68441 0.39407,-1.1165 0.39407,-0.43554 1.00588003,-0.46319 z m 0.55997,3.15938 q 1.08885,-0.16247 1.08885,-1.40687 0,-0.5738 -0.23505,-0.96094 -0.23159,-0.3906 -0.54615,-0.3906 -0.11407,0 -0.19357,0.083 -0.076,0.0795 -0.0968,0.19012 -0.0172,0.11062 -0.0172,0.43554 z"
         id="path38"
         style="stroke-width:0.0186558" /></g><text
       xml:space="preserve"
       style="font-weight:bold;font-size:5.29167px;line-height:1;font-family:Ubuntu;-inkscape-font-specification:'Ubuntu Bold';writing-mode:lr-tb;direction:ltr;fill:#0000ff;stroke:none;stroke-width:0.79375"
       x="96.732246"
       y="50.056305"
       id="text39"><tspan
         sodipodi:role="line"
         id="tspan39"
         style="fill:#0000ff;stroke:none;stroke-width:0.79375"
         x="96.732246"
         y="50.056305">Señal periódica</tspan></text><path
       style="fill:#d5ffe6;stroke:none;stroke-width:0.529167;stroke-linecap:round"
       id="path4"
       sodipodi:type="arc"
       sodipodi:cx="21.505167"
       sodipodi:cy="83.168114"
       sodipodi:rx="23.121546"
       sodipodi:ry="23.121546"
       sodipodi:start="4.1887902"
       sodipodi:end="0"
       sodipodi:arc-type="slice"
       d="m 9.944394,63.144268 a 23.121546,23.121546 0 0 1 23.121546,0 23.121546,23.121546 0 0 1 11.560773,20.023846 H 21.505167 Z" /><path
       style="fill:#d5ffe6;stroke:#008000;stroke-width:0.79375;stroke-linecap:round;stroke-dasharray:none"
       id="path5"
       sodipodi:type="arc"
       sodipodi:cx="21.505167"
       sodipodi:cy="83.168114"
       sodipodi:rx="23.121546"
       sodipodi:ry="23.121546"
       sodipodi:start="4.1887902"
       sodipodi:end="0"
       sodipodi:arc-type="arc"
       d="m 9.944394,63.144268 a 23.121546,23.121546 0 0 1 23.121546,0 23.121546,23.121546 0 0 1 11.560773,20.023846"
       sodipodi:open="true" /><path
       style="fill:#d5ffe6;stroke:none;stroke-width:0.529167;stroke-linecap:round"
       id="path7"
       sodipodi:type="arc"
       sodipodi:cx="-82.778305"
       sodipodi:cy="-22.959963"
       sodipodi:rx="23.121546"
       sodipodi:ry="23.121546"
       sodipodi:start="4.1887902"
       sodipodi:end="0"
       sodipodi:arc-type="slice"
       d="m -94.339078,-42.983809 a 23.121546,23.121546 0 0 1 23.121546,0 23.121546,23.121546 0 0 1 11.560773,20.023846 h -23.121546 z"
       transform="rotate(-119.99994)" /><path
       style="fill:#d5ffe6;stroke:#008000;stroke-width:0.79375;stroke-linecap:round;stroke-dasharray:none"
       id="path10"
       sodipodi:type="arc"
       sodipodi:cx="-82.778305"
       sodipodi:cy="-22.959963"
       sodipodi:rx="23.121546"
       sodipodi:ry="23.121546"
       sodipodi:start="4.1887902"
       sodipodi:end="0"
       sodipodi:arc-type="arc"
       d="m -94.339078,-42.983809 a 23.121546,23.121546 0 0 1 23.121546,0 23.121546,23.121546 0 0 1 11.560773,20.023846"
       sodipodi:open="true"
       transform="rotate(-119.99994)" /><path
       style="fill:none;stroke:#000000;stroke-width:0.529167;stroke-dasharray:1.05833, 1.05833;stroke-dashoffset:0"
       d="M 21.498561,83.173031 10.020721,63.337911"
       id="path2"
       inkscape:transform-center-x="5.7389257"
       inkscape:transform-center-y="-9.9175464" /><path
       style="fill:none;stroke:#000000;stroke-width:0.529167;stroke-dasharray:1.05833, 1.05833;stroke-dashoffset:0"
       d="M 21.498561,83.173001 10.020721,103.00812"
       id="path12"
       inkscape:transform-center-x="5.7389257"
       inkscape:transform-center-y="9.9175437" /><path
       style="fill:#d5d5ff;stroke:#000080;stroke-width:0.79375;stroke-linecap:round;stroke-dasharray:none"
       id="path14"
       sodipodi:type="arc"
       sodipodi:cx="61.273075"
       sodipodi:cy="-60.208145"
       sodipodi:rx="23.121546"
       sodipodi:ry="23.121546"
       sodipodi:start="4.1887902"
       sodipodi:end="0"
       sodipodi:arc-type="arc"
       d="m 49.712302,-80.231991 a 23.121546,23.121546 0 0 1 23.121546,0 23.121546,23.121546 0 0 1 11.560773,20.023846"
       sodipodi:open="true"
       transform="rotate(120.00006)" /><path
       style="fill:none;stroke:#000000;stroke-width:0.529167;stroke-dasharray:1.05833, 1.05833;stroke-dashoffset:0"
       d="m 21.498558,83.173001 22.91664,-0.0225"
       id="path15"
       inkscape:transform-center-x="-11.458311"
       inkscape:transform-center-y="-0.011266349" /><text
       xml:space="preserve"
       style="font-weight:bold;font-size:7.16835px;line-height:1;font-family:Ubuntu;-inkscape-font-specification:'Ubuntu Bold';writing-mode:lr-tb;direction:ltr;fill:#008000;stroke:none;stroke-width:1.07525"
       x="27.253695"
       y="69.914131"
       id="text28"><tspan
         sodipodi:role="line"
         id="tspan28"
         style="fill:#008000;stroke:none;stroke-width:1.07525"
         x="27.253695"
         y="69.914131">0</tspan></text><text
       xml:space="preserve"
       style="font-weight:bold;font-size:7.16835px;line-height:1;font-family:Ubuntu;-inkscape-font-specification:'Ubuntu Bold';writing-mode:lr-tb;direction:ltr;fill:#000080;stroke:none;stroke-width:1.07525"
       x="28.723215"
       y="99.415886"
       id="text29"><tspan
         sodipodi:role="line"
         id="tspan29"
         style="fill:#000080;stroke:none;stroke-width:1.07525"
         x="28.723215"
         y="99.415886">1</tspan></text><text
       xml:space="preserve"
       style="font-weight:bold;font-size:7.16835px;line-height:1;font-family:Ubuntu;-inkscape-font-specification:'Ubuntu Bold';writing-mode:lr-tb;direction:ltr;fill:#008000;stroke:none;stroke-width:1.07525"
       x="1.8228863"
       y="85.547615"
       id="text16"><tspan
         sodipodi:role="line"
         id="tspan16"
         style="fill:#008000;stroke:none;stroke-width:1.07525"
         x="1.8228863"
         y="85.547615">0</tspan></text><circle
       style="fill:#000000;stroke:none;stroke-width:0.79375"
       id="path3"
       cx="21.495722"
       cy="83.168114"
       r="1.2740114" /><g
       id="g37"
       transform="translate(-58.154967,-104.65891)"><text
         xml:space="preserve"
         style="font-weight:bold;font-size:5.29167px;line-height:1;font-family:Ubuntu;-inkscape-font-specification:'Ubuntu Bold';writing-mode:lr-tb;direction:ltr;fill:#000000;stroke:none;stroke-width:0.79375"
         x="111.76851"
         y="189.62202"
         id="text3"><tspan
           sodipodi:role="line"
           id="tspan3"
           style="fill:#000000;stroke:none;stroke-width:0.79375"
           x="111.76851"
           y="189.62202">=0</tspan></text><path
         d="m 108.75503,185.45777 v 0.14422 q -0.88533,0.22834 -0.88533,1.6745 0,1.56634 1.10166,1.84274 v -2.32746 q 0,-0.50875 0.0641,-0.74111 0.0641,-0.23635 0.28042,-0.41261 0.22033,-0.18026 0.5288,-0.18026 0.54081,0 1.00148,0.50875 0.4647,0.50875 0.4647,1.32597 0,0.76513 -0.4767,1.36604 -0.47271,0.6009 -1.43013,0.68502 v 1.64647 h -0.43265 v -1.64647 q -0.83324,-0.0721 -1.33799,-0.62092 -0.50076,-0.55282 -0.50076,-1.43414 0,-0.79317 0.45669,-1.29393 0.45669,-0.50475 1.16574,-0.53679 z m 0.64896,3.66146 q 1.26189,-0.18829 1.26189,-1.63044 0,-0.66498 -0.2724,-1.11365 -0.2684,-0.45268 -0.63295,-0.45268 -0.13219,0 -0.22433,0.0961 -0.0881,0.0921 -0.11222,0.22034 -0.02,0.12819 -0.02,0.50475 z"
         id="path1-9"
         style="stroke-width:0.0216206" /></g><circle
       style="fill:#000000;stroke:none;stroke-width:0.79375"
       id="circle35"
       cx="44.659161"
       cy="83.168114"
       r="1.2740114" /><text
       xml:space="preserve"
       style="font-weight:bold;font-size:4.56604px;line-height:1;font-family:Ubuntu;-inkscape-font-specification:'Ubuntu Bold';writing-mode:lr-tb;direction:ltr;fill:#000000;stroke:none;stroke-width:0.684906"
       x="1.9897887"
       y="59.204353"
       id="text17"><tspan
         sodipodi:role="line"
         id="tspan17"
         style="fill:#000000;stroke:none;stroke-width:0.684906"
         x="1.9897887"
         y="59.204353">=120</tspan></text><path
       d="m -0.610478,55.61113 v 0.12444 q -0.76392,0.19703 -0.76392,1.44488 0,1.35156 0.95058,1.59006 V 56.7622 q 0,-0.43899 0.0553,-0.63948 0.0553,-0.20395 0.24197,-0.35603 0.19012,-0.15555 0.45629,-0.15555 0.46665,0 0.86415,0.43899 0.40097,0.43899 0.40097,1.14415 0,0.66021 -0.41132,1.17871 -0.4079,0.51851 -1.23403,0.59109 v 1.42069 h -0.37332 v -1.42069 q -0.71898,-0.0622 -1.15452,-0.53577 -0.43209,-0.47702 -0.43209,-1.23748 0,-0.68441 0.39407,-1.1165 0.39407,-0.43554 1.00588,-0.46319 z m 0.55997,3.15938 q 1.08885,-0.16247 1.08885,-1.40687 0,-0.5738 -0.23505,-0.96094 -0.23159,-0.3906 -0.54615,-0.3906 -0.11407,0 -0.19357,0.083 -0.076,0.0795 -0.0968,0.19012 -0.0172,0.11062 -0.0172,0.43554 z"
       id="path17"
       style="stroke-width:0.0186558" /><text
       xml:space="preserve"
       style="font-weight:bold;font-size:4.56604px;line-height:1;font-family:Ubuntu;-inkscape-font-specification:'Ubuntu Bold';writing-mode:lr-tb;direction:ltr;fill:#000000;stroke:none;stroke-width:0.684906"
       x="1.9897887"
       y="110.96624"
       id="text18"><tspan
         sodipodi:role="line"
         id="tspan18"
         style="fill:#000000;stroke:none;stroke-width:0.684906"
         x="1.9897887"
         y="110.96624">=-120</tspan></text><path
       d="m -0.610478,107.37302 v 0.12444 q -0.76392,0.19703 -0.76392,1.44488 0,1.35156 0.95058,1.59006 v -2.00831 q 0,-0.43899 0.0553,-0.63948 0.0553,-0.20395 0.24197,-0.35603 0.19012,-0.15555 0.45629,-0.15555 0.46665,0 0.86415,0.43899 0.40097,0.43899 0.40097,1.14415 0,0.66021 -0.41132,1.17871 -0.4079,0.51851 -1.23403,0.59109 v 1.42069 h -0.37332 v -1.42069 q -0.71898,-0.0622 -1.15452,-0.53577 -0.43209,-0.47702 -0.43209,-1.23748 0,-0.68441 0.39407,-1.1165 0.39407,-0.43554 1.00588,-0.46319 z m 0.55997,3.15938 q 1.08885,-0.16247 1.08885,-1.40687 0,-0.5738 -0.23505,-0.96094 -0.23159,-0.3906 -0.54615,-0.3906 -0.11407,0 -0.19357,0.083 -0.076,0.0795 -0.0968,0.19012 -0.0172,0.11062 -0.0172,0.43554 z"
       id="path18"
       style="stroke-width:0.0186558" /><circle
       style="fill:#000000;stroke:none;stroke-width:0.79375"
       id="circle19"
       cx="105.3905"
       cy="83.143852"
       r="1.2740114" /><text
       xml:space="preserve"
       style="font-weight:bold;font-size:7.16835px;line-height:1;font-family:Ubuntu;-inkscape-font-specification:'Ubuntu Bold';writing-mode:lr-tb;direction:ltr;fill:#008000;stroke:none;stroke-width:1.07525"
       x="118.26548"
       y="80.95887"
       id="text19"><tspan
         sodipodi:role="line"
         id="tspan19"
         style="fill:#008000;stroke:none;stroke-width:1.07525"
         x="118.26548"
         y="80.95887">0</tspan></text><text
       xml:space="preserve"
       style="font-weight:bold;font-size:4.56604px;line-height:1;font-family:Ubuntu;-inkscape-font-specification:'Ubuntu Bold';writing-mode:lr-tb;direction:ltr;fill:#000000;stroke:none;stroke-width:0.684906"
       x="102.05898"
       y="90.505547"
       id="text20"><tspan
         sodipodi:role="line"
         id="tspan20"
         style="fill:#000000;stroke:none;stroke-width:0.684906"
         x="102.05898"
         y="90.505547">=120</tspan></text><path
       d="m 99.458714,86.91232 v 0.12444 q -0.76392,0.19703 -0.76392,1.44488 0,1.35156 0.95058,1.59006 v -2.00831 q 0,-0.43899 0.0553,-0.63948 0.0553,-0.20395 0.24197,-0.35603 0.190116,-0.15555 0.456286,-0.15555 0.46665,0 0.86415,0.43899 0.40097,0.43899 0.40097,1.14415 0,0.66021 -0.41132,1.17871 -0.4079,0.51851 -1.23403,0.59109 v 1.42069 h -0.373316 v -1.42069 q -0.71898,-0.0622 -1.15452,-0.53577 -0.43209,-0.47702 -0.43209,-1.23748 0,-0.68441 0.39407,-1.1165 0.39407,-0.43554 1.00588,-0.46319 z m 0.559966,3.15938 q 1.08885,-0.16247 1.08885,-1.40687 0,-0.5738 -0.23505,-0.96094 -0.23159,-0.3906 -0.54615,-0.3906 -0.11407,0 -0.19357,0.083 -0.076,0.0795 -0.0968,0.19012 -0.0172,0.11062 -0.0172,0.43554 z"
       id="path20"
       style="stroke-width:0.0186558" /><text
       xml:space="preserve"
       style="font-weight:bold;font-size:5.29167px;line-height:1;font-family:Ubuntu;-inkscape-font-specification:'Ubuntu Bold';writing-mode:lr-tb;direction:ltr;fill:#000000;stroke:none;stroke-width:0.79375"
       x="87.669899"
       y="59.57056"
       id="text22"><tspan
         sodipodi:role="line"
         id="tspan22"
         style="font-style:normal;font-variant:normal;font-weight:normal;font-stretch:normal;font-family:Ubuntu;-inkscape-font-specification:Ubuntu;fill:#000000;stroke:none;stroke-width:0.79375"
         x="87.669899"
         y="59.57056">Ciclo</tspan></text><path
       style="fill:#000000;stroke:#000000;stroke-width:0.264583;stroke-linecap:round;stroke-dasharray:none;stroke-dashoffset:0;marker-start:url(#Triangle);marker-end:url(#Triangle)"
       d="M 79.970495,62.793793 H 104.48434"
       id="path23" /><text
       xml:space="preserve"
       style="font-weight:bold;font-size:5.29167px;line-height:1;font-family:Ubuntu;-inkscape-font-specification:'Ubuntu Bold';writing-mode:lr-tb;direction:ltr;fill:#000000;stroke:none;stroke-width:0.79375"
       x="114.06285"
       y="59.57056"
       id="text23"><tspan
         sodipodi:role="line"
         id="tspan23"
         style="font-style:normal;font-variant:normal;font-weight:normal;font-stretch:normal;font-family:Ubuntu;-inkscape-font-specification:Ubuntu;fill:#000000;stroke:none;stroke-width:0.79375"
         x="114.06285"
         y="59.57056">Ciclo</tspan></text><path
       style="fill:#000000;stroke:#000000;stroke-width:0.264583;stroke-linecap:round;stroke-dasharray:none;stroke-dashoffset:0;marker-start:url(#Triangle);marker-end:url(#Triangle)"
       d="m 106.36345,62.793793 h 24.51384"
       id="path24" /><text
       xml:space="preserve"
       style="font-weight:bold;font-size:5.29167px;line-height:1;font-family:Ubuntu;-inkscape-font-specification:'Ubuntu Bold';writing-mode:lr-tb;direction:ltr;fill:#000000;stroke:none;stroke-width:0.79375"
       x="140.4558"
       y="59.57056"
       id="text24"><tspan
         sodipodi:role="line"
         id="tspan24"
         style="font-style:normal;font-variant:normal;font-weight:normal;font-stretch:normal;font-family:Ubuntu;-inkscape-font-specification:Ubuntu;fill:#000000;stroke:none;stroke-width:0.79375"
         x="140.4558"
         y="59.57056">Ciclo</tspan></text><path
       style="fill:#000000;stroke:#000000;stroke-width:0.264583;stroke-linecap:round;stroke-dasharray:none;stroke-dashoffset:0;marker-start:url(#Triangle);marker-end:url(#Triangle)"
       d="m 132.73409,62.793793 h 23.93188"
       id="path25" /><path
       style="fill:#000000;stroke:#000000;stroke-width:0.264583;stroke-linecap:round;stroke-dasharray:0.264583, 1.05833;stroke-dashoffset:0"
       d="M 79.03094,57.668591 V 84.436993"
       id="path26" /><path
       style="fill:#000000;stroke:#000000;stroke-width:0.264583;stroke-linecap:round;stroke-dasharray:0.264583, 1.05833;stroke-dashoffset:0"
       d="M 105.25819,57.668591 V 84.436993"
       id="path27" /><path
       style="fill:#000000;stroke:#000000;stroke-width:0.264583;stroke-linecap:round;stroke-dasharray:0.264583, 1.05833;stroke-dashoffset:0"
       d="M 131.55299,57.668591 V 84.436993"
       id="path28" /><path
       style="fill:#000000;stroke:#000000;stroke-width:0.264583;stroke-linecap:round;stroke-dasharray:0.264583, 1.05833;stroke-dashoffset:0"
       d="M 157.45092,57.668591 V 84.436993"
       id="path29" /></g></svg>
