<?xml version="1.0" encoding="UTF-8" standalone="no"?>
<!-- Created with Inkscape (http://www.inkscape.org/) -->

<svg
   width="65.176086mm"
   height="57.175426mm"
   viewBox="0 0 65.176087 57.175427"
   version="1.1"
   id="svg1"
   xml:space="preserve"
   inkscape:version="1.4 (e7c3feb, 2024-10-09)"
   sodipodi:docname="logo-icestudio-digital.svg"
   xmlns:inkscape="http://www.inkscape.org/namespaces/inkscape"
   xmlns:sodipodi="http://sodipodi.sourceforge.net/DTD/sodipodi-0.dtd"
   xmlns="http://www.w3.org/2000/svg"
   xmlns:svg="http://www.w3.org/2000/svg"><sodipodi:namedview
     id="namedview1"
     pagecolor="#ffffff"
     bordercolor="#000000"
     borderopacity="0.25"
     inkscape:showpageshadow="2"
     inkscape:pageopacity="0.0"
     inkscape:pagecheckerboard="0"
     inkscape:deskcolor="#d1d1d1"
     inkscape:document-units="mm"
     inkscape:zoom="1.3558782"
     inkscape:cx="93.666229"
     inkscape:cy="143.44946"
     inkscape:window-width="1866"
     inkscape:window-height="1011"
     inkscape:window-x="54"
     inkscape:window-y="32"
     inkscape:window-maximized="1"
     inkscape:current-layer="layer1" /><defs
     id="defs1"><rect
       x="458.08237"
       y="131.94965"
       width="118.49906"
       height="52.223118"
       id="rect12453-3" /></defs><g
     inkscape:label="Layer 1"
     inkscape:groupmode="layer"
     id="layer1"
     style="display:inline"
     transform="translate(-54.980865,-56.401928)"><rect
       style="fill:#ffffff;fill-opacity:1;stroke:none;stroke-width:3.73977;stroke-dasharray:none;stroke-opacity:1"
       id="rect25"
       width="65.176086"
       height="57.175426"
       x="54.980865"
       y="56.401928" /></g><g
     inkscape:groupmode="layer"
     id="layer2"
     inkscape:label="Layer 2"
     style="display:inline"
     transform="translate(-54.980865,-56.401928)"><path
       id="path25"
       style="fill:#ffff64;fill-opacity:1;stroke:#aaccff;stroke-width:2.24937;stroke-dasharray:none;stroke-opacity:1"
       d="m 93.586425,92.265767 -2.60549,2.880133 8.07298,1.751558 6.901055,1.497328 -4.72972,-14.57404 -2.449145,2.707384 z"
       sodipodi:nodetypes="ccccccc" /><rect
       style="fill:#aaccff;fill-opacity:1;stroke:#afc6e9;stroke-width:2.35992;stroke-dasharray:none;stroke-opacity:1"
       id="rect24"
       width="34.172783"
       height="8.211235"
       x="97.516396"
       y="-1.6000152"
       transform="matrix(0.7460736,0.66586349,-0.66102806,0.75036118,0,0)" /><path
       style="fill:#afc6e9;stroke:#afc6e9;stroke-width:3.96875;stroke-linecap:round;stroke-miterlimit:4;stroke-dasharray:none;stroke-opacity:1"
       inkscape:connector-curvature="0"
       id="path24"
       d="M 100.59813,93.51015 78.069659,73.209776"
       sodipodi:nodetypes="cc" /><path
       style="fill:none;stroke:#4f4f4f;stroke-width:1.85208;stroke-linecap:round;stroke-miterlimit:4;stroke-dasharray:none;stroke-opacity:1"
       inkscape:connector-curvature="0"
       id="path22"
       d="M 97.286529,90.474516 74.758061,70.174142"
       sodipodi:nodetypes="cc" /><path
       id="path9"
       d="M 90.796684,85.820646 103.25715,72.701828"
       style="fill:#afc6e9;fill-opacity:1;stroke:#afc6e9;stroke-width:3.96875;stroke-linecap:round;stroke-miterlimit:4;stroke-dasharray:none;stroke-opacity:1"
       sodipodi:nodetypes="cc" /><path
       id="path7"
       d="M 71.360248,91.313086 83.820718,78.194268"
       style="fill:#4f4f4f;fill-opacity:1;stroke:#aaccff;stroke-width:3.96875;stroke-linecap:round;stroke-miterlimit:4;stroke-dasharray:none;stroke-opacity:1"
       sodipodi:nodetypes="cc" /><path
       style="fill:#ffff64;fill-opacity:1;stroke:#aaccff;stroke-width:2.56582;stroke-linejoin:round;stroke-miterlimit:4;stroke-dasharray:none;stroke-opacity:1"
       inkscape:connector-curvature="0"
       id="path5"
       d="m 98.253339,68.308587 4.602391,-4.53643 8.75931,8.886663 -4.60237,4.536428 c 0,0 -4.58383,3.705941 -8.506471,-0.273716 -3.92241,-3.979441 -0.25286,-8.612945 -0.25286,-8.612945 z" /><path
       style="fill:#aaccff;fill-opacity:1;stroke:#aaccff;stroke-width:2.7276;stroke-linecap:round;stroke-linejoin:round;stroke-miterlimit:4;stroke-dasharray:none;stroke-opacity:1"
       inkscape:connector-curvature="0"
       id="path4"
       d="m 74.729107,98.346012 -4.434281,5.426388 c 0,0 -1.057538,-3.880868 -4.090878,-6.433278 -3.033018,-2.552327 -6.932366,-2.501457 -6.932366,-2.501457 l 4.473407,-5.52213 c 2.378479,-2.673649 8.246503,-3.59017 11.577787,-2.771597 2.43577,5.231487 0.863187,9.867214 -0.593653,11.802134 z" /><ellipse
       style="fill:#aaccff;fill-opacity:1;stroke:#aaccff;stroke-width:2.44532;stroke-dasharray:none;stroke-opacity:1"
       id="ellipse3"
       cx="109.43266"
       cy="101.08179"
       rx="5.3039999"
       ry="7.4753799" /><path
       style="fill:#305eac;fill-opacity:1;stroke:#4f4f4f;stroke-width:1.85208;stroke-linejoin:round;stroke-miterlimit:4;stroke-dasharray:none;stroke-opacity:1"
       inkscape:connector-curvature="0"
       id="path6"
       d="m 100.00495,69.616895 3.32213,-3.274523 6.32272,6.414643 -3.32212,3.274521 c 0,0 -3.30874,2.675052 -6.14021,-0.197576 -2.831304,-2.872472 -0.18252,-6.217065 -0.18252,-6.217065 z" /><path
       style="fill:none;stroke:#4f4f4f;stroke-width:1.85208;stroke-linecap:round;stroke-miterlimit:4;stroke-dasharray:none;stroke-opacity:1"
       inkscape:connector-curvature="0"
       id="path8-3"
       d="m 100.14318,75.930199 -6.679023,6.934449"
       sodipodi:nodetypes="cc" /><path
       style="fill:#305eac;fill-opacity:1;stroke:#4f4f4f;stroke-width:1.85208;stroke-linecap:round;stroke-linejoin:round;stroke-miterlimit:4;stroke-dasharray:none;stroke-opacity:1"
       inkscape:connector-curvature="0"
       id="path6-3"
       d="m 73.622801,96.366443 -3.010944,3.684597 c 0,0 -0.718084,-2.635167 -2.777768,-4.368287 -2.059465,-1.73307 -4.707181,-1.69853 -4.707181,-1.69853 l 3.037511,-3.74961 c 1.615023,-1.815451 5.5995,-2.437783 7.861492,-1.881959 1.653925,3.552259 0.586117,6.699989 -0.403099,8.013829 z" /><path
       id="path8"
       d="m 74.184592,88.147251 7.202058,-7.47013"
       style="fill:#4f4f4f;fill-opacity:1;stroke:#4f4f4f;stroke-width:1.85208;stroke-linecap:round;stroke-miterlimit:4;stroke-dasharray:none;stroke-opacity:1"
       sodipodi:nodetypes="cc" /><ellipse
       style="fill:#305eac;fill-opacity:1;stroke:#4f4f4f;stroke-width:1.787;stroke-dasharray:none;stroke-opacity:1"
       id="path2"
       cx="109.62696"
       cy="101.08179"
       rx="3.8760757"
       ry="5.4628844" /><ellipse
       style="fill:#ffffff;fill-opacity:1;stroke:none;stroke-width:0.909694;stroke-dasharray:none;stroke-opacity:1"
       id="ellipse2"
       cx="109.59839"
       cy="100.9966"
       rx="1.809792"
       ry="3.0319874" /><path
       id="path10"
       style="fill:#305eac;fill-opacity:1;stroke:#4f4f4f;stroke-width:1.61851;stroke-dasharray:none;stroke-opacity:1"
       d="m 95.378242,92.403616 -1.874745,2.072365 5.808815,1.260313 4.965568,1.077384 -3.40322,-10.486576 -1.762243,1.948066 z"
       sodipodi:nodetypes="ccccccc" /><rect
       style="fill:#305eac;fill-opacity:1;stroke:#4f4f4f;stroke-width:1.8521;stroke-dasharray:none;stroke-opacity:1"
       id="rect11"
       width="7.613143"
       height="5.7364411"
       x="110.21114"
       y="-0.44380188"
       transform="matrix(0.7460736,0.66586349,-0.66102806,0.75036118,0,0)" /><rect
       style="fill:#305eac;fill-opacity:1;stroke:#4f4f4f;stroke-width:1.8521;stroke-dasharray:none;stroke-opacity:1"
       id="rect12"
       width="7.613143"
       height="5.7364411"
       x="121.40057"
       y="-0.36093768"
       transform="matrix(0.7460736,0.66586349,-0.66102806,0.75036118,0,0)" /><rect
       style="fill:#305eac;fill-opacity:1;stroke:#4f4f4f;stroke-width:1.8521;stroke-dasharray:none;stroke-opacity:1"
       id="rect22"
       width="7.613143"
       height="5.7364411"
       x="98.737572"
       y="-0.40455431"
       transform="matrix(0.7460736,0.66586349,-0.66102806,0.75036118,0,0)" /></g></svg>
