<?xml version="1.0" encoding="UTF-8" standalone="no"?>
<!-- Created with Inkscape (http://www.inkscape.org/) -->

<svg
   width="329.62155mm"
   height="107.24046mm"
   viewBox="0 0 329.62155 107.24046"
   version="1.1"
   id="svg1"
   xml:space="preserve"
   inkscape:version="1.4.2 (cdb4348684, 2025-11-24)"
   sodipodi:docname="osciladores-1.svg"
   xmlns:inkscape="http://www.inkscape.org/namespaces/inkscape"
   xmlns:sodipodi="http://sodipodi.sourceforge.net/DTD/sodipodi-0.dtd"
   xmlns="http://www.w3.org/2000/svg"
   xmlns:svg="http://www.w3.org/2000/svg"><sodipodi:namedview
     id="namedview1"
     pagecolor="#ffffff"
     bordercolor="#000000"
     borderopacity="0.25"
     inkscape:showpageshadow="2"
     inkscape:pageopacity="0.0"
     inkscape:pagecheckerboard="0"
     inkscape:deskcolor="#d1d1d1"
     inkscape:document-units="mm"
     inkscape:zoom="0.69753788"
     inkscape:cx="651.57752"
     inkscape:cy="361.98751"
     inkscape:window-width="1866"
     inkscape:window-height="1011"
     inkscape:window-x="54"
     inkscape:window-y="32"
     inkscape:window-maximized="1"
     inkscape:current-layer="layer1" /><defs
     id="defs1"><marker
       style="overflow:visible"
       id="Triangle"
       refX="0"
       refY="0"
       orient="auto-start-reverse"
       inkscape:stockid="Triangle arrow"
       markerWidth="1"
       markerHeight="1"
       viewBox="0 0 1 1"
       inkscape:isstock="true"
       inkscape:collect="always"
       preserveAspectRatio="xMidYMid"><path
         transform="scale(0.5)"
         style="fill:context-stroke;fill-rule:evenodd;stroke:context-stroke;stroke-width:1pt"
         d="M 5.77,0 -2.88,5 V -5 Z"
         id="path135" /></marker></defs><g
     inkscape:groupmode="layer"
     id="layer2"
     inkscape:label="Back"
     transform="translate(25.219753,-33.19186)"><rect
       style="fill:#f9f9f9;stroke:none;stroke-width:0.25409;stroke-dasharray:0.50818, 1.01636;stroke-dashoffset:0"
       id="rect26"
       width="329.62155"
       height="107.24046"
       x="-25.219753"
       y="33.19186" /><rect
       style="fill:#f9f9f9;stroke:#000000;stroke-width:0.479138;stroke-dasharray:none;stroke-dashoffset:0"
       id="rect27"
       width="324.74054"
       height="100.67858"
       x="-22.968906"
       y="35.442707" /></g><g
     inkscape:label="Layer 1"
     inkscape:groupmode="layer"
     id="layer1"
     transform="translate(25.219753,-33.19186)"><circle
       style="fill:none;stroke:#000000;stroke-width:0.79375"
       id="path1"
       cx="30.766533"
       cy="93.310341"
       r="21.241379" /><path
       style="fill:none;stroke:#000000;stroke-width:0.79375"
       d="M 30.766533,93.310338 H 52.007912"
       id="path2" /><text
       xml:space="preserve"
       style="font-weight:bold;font-size:5.29167px;line-height:1;font-family:Ubuntu;-inkscape-font-specification:'Ubuntu Bold';writing-mode:lr-tb;direction:ltr;fill:#000000;stroke:none;stroke-width:0.79375"
       x="41.357433"
       y="99.68734"
       id="text3"><tspan
         sodipodi:role="line"
         id="tspan3"
         style="fill:#000000;stroke:none;stroke-width:0.79375"
         x="41.357433"
         y="99.68734">=0</tspan></text><path
       d="m 38.343949,95.523097 v 0.144218 q -0.885321,0.228336 -0.885321,1.674495 0,1.566346 1.101656,1.842745 v -2.327458 q 0,-0.508754 0.06411,-0.741111 0.06411,-0.236356 0.280419,-0.412608 0.220335,-0.180267 0.528797,-0.180267 0.540817,0 1.001487,0.508754 0.464692,0.508754 0.464692,1.32597 0,0.765133 -0.476691,1.366035 -0.472713,0.600905 -1.430139,0.685025 v 1.646465 h -0.432648 v -1.646465 q -0.833237,-0.0721 -1.337992,-0.620921 -0.500755,-0.552819 -0.500755,-1.434139 0,-0.793173 0.456692,-1.293928 0.456692,-0.504755 1.16574,-0.536796 z m 0.648963,3.661458 q 1.261887,-0.18829 1.261887,-1.63044 0,-0.664985 -0.272398,-1.113655 -0.268398,-0.452671 -0.632943,-0.452671 -0.132191,0 -0.224336,0.09614 -0.0881,0.09214 -0.112222,0.220336 -0.02005,0.128193 -0.02005,0.504754 z"
       id="path1-9"
       style="stroke-width:0.0216206" /><circle
       style="fill:#000000;stroke:none;stroke-width:0.79375"
       id="path3"
       cx="30.766533"
       cy="93.310341"
       r="1.2740114" /><text
       xml:space="preserve"
       style="font-weight:bold;font-size:5.29167px;line-height:1;font-family:Ubuntu;-inkscape-font-specification:'Ubuntu Bold';writing-mode:lr-tb;direction:ltr;fill:#0000ff;stroke:none;stroke-width:0.79375"
       x="113.64336"
       y="49.678902"
       id="text4"><tspan
         sodipodi:role="line"
         id="tspan4"
         style="fill:#0000ff;stroke:none;stroke-width:0.79375"
         x="113.64336"
         y="49.678902">Oscilador</tspan></text><circle
       style="fill:#000080;stroke:none;stroke-width:0.79375"
       id="circle4"
       cx="52.007908"
       cy="93.310341"
       r="1.2740114" /><path
       style="fill:none;stroke:#000000;stroke-width:0.529167;stroke-dasharray:none;marker-start:url(#Triangle)"
       id="circle5"
       sodipodi:type="arc"
       sodipodi:cx="30.766533"
       sodipodi:cy="92.91346"
       sodipodi:rx="27.087187"
       sodipodi:ry="27.087187"
       sodipodi:start="4.9011636"
       sodipodi:end="5.972985"
       sodipodi:open="true"
       sodipodi:arc-type="arc"
       d="M 35.84959,66.307479 A 27.087187,27.087187 0 0 1 56.560915,84.645113" /><circle
       style="fill:none;stroke:#000000;stroke-width:0.79375"
       id="circle6"
       cx="87.091248"
       cy="93.310341"
       r="21.241379" /><path
       style="fill:none;stroke:#000000;stroke-width:0.79375"
       d="M 87.091245,93.310338 V 72.068958"
       id="path6"
       inkscape:transform-center-y="-10.62069" /><text
       xml:space="preserve"
       style="font-weight:bold;font-size:4.56604px;line-height:1;font-family:Ubuntu;-inkscape-font-specification:'Ubuntu Bold';writing-mode:lr-tb;direction:ltr;fill:#000000;stroke:none;stroke-width:0.684906"
       x="92.889526"
       y="81.57489"
       id="text6"><tspan
         sodipodi:role="line"
         id="tspan6"
         style="fill:#000000;stroke:none;stroke-width:0.684906"
         x="92.889526"
         y="81.57489">=90</tspan></text><path
       d="m 90.289275,77.981672 v 0.124442 q -0.76392,0.197025 -0.76392,1.444877 0,1.351558 0.95058,1.590056 v -2.008302 q 0,-0.43899 0.0553,-0.639485 0.0553,-0.203945 0.24197,-0.356028 0.19012,-0.155548 0.45629,-0.155548 0.46665,0 0.86415,0.43899 0.40097,0.438991 0.40097,1.144145 0,0.660212 -0.41132,1.178715 -0.4079,0.518505 -1.23403,0.59109 v 1.42069 h -0.37332 v -1.42069 q -0.71898,-0.06221 -1.15452,-0.535777 -0.43209,-0.477012 -0.43209,-1.23748 0,-0.684408 0.39407,-1.116496 0.39407,-0.43554 1.00588,-0.463187 z m 0.55997,3.159375 q 1.08885,-0.162471 1.08885,-1.406864 0,-0.573798 -0.23505,-0.960943 -0.23159,-0.390598 -0.54615,-0.390598 -0.11407,0 -0.19357,0.08296 -0.076,0.0795 -0.0968,0.190122 -0.0172,0.110614 -0.0172,0.435539 z"
       id="path7"
       style="stroke-width:0.0186558" /><circle
       style="fill:#000000;stroke:none;stroke-width:0.79375"
       id="circle7"
       cx="87.091248"
       cy="93.310341"
       r="1.2740114" /><circle
       style="fill:#000080;stroke:none;stroke-width:0.79375"
       id="circle8"
       cx="87.091248"
       cy="72.068962"
       r="1.2740114" /><path
       style="fill:none;stroke:#000000;stroke-width:0.529167;stroke-dasharray:none;marker-start:url(#Triangle)"
       id="path8"
       sodipodi:type="arc"
       sodipodi:cx="8.5748062"
       sodipodi:cy="127.19388"
       sodipodi:rx="27.087187"
       sodipodi:ry="27.087187"
       sodipodi:start="4.9011636"
       sodipodi:end="5.972985"
       sodipodi:open="true"
       sodipodi:arc-type="arc"
       d="m 13.657864,100.5879 a 27.087187,27.087187 0 0 1 20.711324,18.33763"
       transform="rotate(-39.116579)" /><path
       style="fill:#000000;stroke:#000000;stroke-width:0.264583;stroke-dasharray:0.529167, 1.05833;stroke-dashoffset:0"
       d="M 87.091245,93.310338 H 108.33262"
       id="path9" /><path
       style="fill:none;stroke:#000000;stroke-width:0.388033"
       id="circle9"
       sodipodi:type="arc"
       sodipodi:cx="86.694382"
       sodipodi:cy="93.267731"
       sodipodi:rx="10.384066"
       sodipodi:ry="10.384066"
       sodipodi:start="4.7415189"
       sodipodi:end="6.2825393"
       sodipodi:open="true"
       sodipodi:arc-type="arc"
       d="M 86.996826,82.88807 A 10.384066,10.384066 0 0 1 97.078445,93.261023" /><circle
       style="fill:none;stroke:#000000;stroke-width:0.79375"
       id="circle10"
       cx="142.59991"
       cy="93.310341"
       r="21.241379" /><path
       style="fill:none;stroke:#000000;stroke-width:0.79375"
       d="M 142.5999,93.310338 H 121.35852"
       id="path10"
       inkscape:transform-center-x="10.62069" /><text
       xml:space="preserve"
       style="font-weight:bold;font-size:4.56604px;line-height:1;font-family:Ubuntu;-inkscape-font-specification:'Ubuntu Bold';writing-mode:lr-tb;direction:ltr;fill:#000000;stroke:none;stroke-width:0.684906"
       x="139.98595"
       y="80.958511"
       id="text10"><tspan
         sodipodi:role="line"
         id="tspan10"
         style="fill:#000000;stroke:none;stroke-width:0.684906"
         x="139.98595"
         y="80.958511">=180</tspan></text><path
       d="m 137.38568,77.365293 v 0.124442 q -0.76392,0.197025 -0.76392,1.444877 0,1.351558 0.95058,1.590056 v -2.008302 q 0,-0.43899 0.0553,-0.639485 0.0553,-0.203945 0.24197,-0.356028 0.19012,-0.155548 0.45629,-0.155548 0.46665,0 0.86415,0.43899 0.40097,0.438991 0.40097,1.144145 0,0.660212 -0.41132,1.178715 -0.4079,0.518505 -1.23403,0.59109 v 1.42069 h -0.37332 v -1.42069 q -0.71898,-0.06221 -1.15452,-0.535777 -0.43209,-0.477012 -0.43209,-1.23748 0,-0.684408 0.39407,-1.116496 0.39407,-0.43554 1.00588,-0.463187 z m 0.55997,3.159375 q 1.08885,-0.162471 1.08885,-1.406864 0,-0.573798 -0.23505,-0.960943 -0.23159,-0.390598 -0.54615,-0.390598 -0.11407,0 -0.19357,0.08296 -0.076,0.0795 -0.0968,0.190122 -0.0172,0.110614 -0.0172,0.435539 z"
       id="path11"
       style="stroke-width:0.0186558" /><circle
       style="fill:#000000;stroke:none;stroke-width:0.79375"
       id="circle11"
       cx="142.59991"
       cy="93.310341"
       r="1.2740114" /><circle
       style="fill:#000080;stroke:none;stroke-width:0.79375"
       id="circle12"
       cx="121.35852"
       cy="93.310341"
       r="1.2740114" /><path
       style="fill:none;stroke:#000000;stroke-width:0.529167;stroke-dasharray:none;marker-start:url(#Triangle)"
       id="path12"
       sodipodi:type="arc"
       sodipodi:cx="-163.43378"
       sodipodi:cy="54.266457"
       sodipodi:rx="27.087187"
       sodipodi:ry="27.087187"
       sodipodi:start="4.9011636"
       sodipodi:end="5.972985"
       sodipodi:open="true"
       sodipodi:arc-type="arc"
       d="m -158.35072,27.660476 a 27.087187,27.087187 0 0 1 20.71132,18.337633"
       transform="rotate(-128.84899)" /><path
       style="fill:#000000;stroke:#000000;stroke-width:0.264583;stroke-dasharray:0.529167, 1.05833;stroke-dashoffset:0"
       d="m 142.5999,93.310338 h 21.24138"
       id="path13" /><path
       style="fill:none;stroke:#000000;stroke-width:0.388033"
       id="path14"
       sodipodi:type="arc"
       sodipodi:cx="142.20305"
       sodipodi:cy="93.267731"
       sodipodi:rx="10.384066"
       sodipodi:ry="10.384066"
       sodipodi:start="3.1178002"
       sodipodi:end="6.2825393"
       sodipodi:arc-type="slice"
       d="m 131.82192,93.51477 a 10.384066,10.384066 0 0 1 5.0452,-9.155273 10.384066,10.384066 0 0 1 10.45259,-0.127729 10.384066,10.384066 0 0 1 5.2674,9.029255 l -10.38406,0.0067 z" /><circle
       style="fill:none;stroke:#000000;stroke-width:0.79375"
       id="circle19"
       cx="199.94255"
       cy="93.310341"
       r="21.241379" /><path
       style="fill:none;stroke:#000000;stroke-width:0.79375"
       d="M 199.94255,114.41943 V 93.178047"
       id="path19"
       inkscape:transform-center-y="-10.62069" /><text
       xml:space="preserve"
       style="font-weight:bold;font-size:4.56604px;line-height:1;font-family:Ubuntu;-inkscape-font-specification:'Ubuntu Bold';writing-mode:lr-tb;direction:ltr;fill:#000000;stroke:none;stroke-width:0.684906"
       x="205.27621"
       y="107.98486"
       id="text19"><tspan
         sodipodi:role="line"
         id="tspan19"
         style="fill:#000000;stroke:none;stroke-width:0.684906"
         x="205.27621"
         y="107.98486">=-90</tspan></text><path
       d="m 202.67597,104.39164 v 0.12444 q -0.76392,0.19702 -0.76392,1.44487 0,1.35156 0.95058,1.59006 v -2.0083 q 0,-0.43899 0.0553,-0.63949 0.0553,-0.20394 0.24197,-0.35602 0.19012,-0.15555 0.45629,-0.15555 0.46665,0 0.86415,0.43899 0.40097,0.43899 0.40097,1.14414 0,0.66021 -0.41132,1.17872 -0.4079,0.5185 -1.23403,0.59109 v 1.42069 h -0.37332 v -1.42069 q -0.71898,-0.0622 -1.15452,-0.53578 -0.43209,-0.47701 -0.43209,-1.23748 0,-0.68441 0.39407,-1.1165 0.39407,-0.43554 1.00588,-0.46318 z m 0.55997,3.15937 q 1.08885,-0.16247 1.08885,-1.40686 0,-0.5738 -0.23505,-0.96095 -0.23159,-0.39059 -0.54615,-0.39059 -0.11407,0 -0.19357,0.083 -0.076,0.0795 -0.0968,0.19012 -0.0172,0.11061 -0.0172,0.43554 z"
       id="path20"
       style="stroke-width:0.0186558" /><circle
       style="fill:#000000;stroke:none;stroke-width:0.79375"
       id="circle20"
       cx="199.94255"
       cy="93.310341"
       r="1.2740114" /><circle
       style="fill:#000080;stroke:none;stroke-width:0.79375"
       id="circle21"
       cx="199.94255"
       cy="114.55172"
       r="1.2740114" /><path
       style="fill:none;stroke:#000000;stroke-width:0.529167;stroke-dasharray:none;marker-start:url(#Triangle)"
       id="path21"
       sodipodi:type="arc"
       sodipodi:cx="-97.478546"
       sodipodi:cy="-197.44046"
       sodipodi:rx="27.087187"
       sodipodi:ry="27.087187"
       sodipodi:start="4.9011636"
       sodipodi:end="5.972985"
       sodipodi:open="true"
       sodipodi:arc-type="arc"
       d="m -92.395489,-224.04644 a 27.087187,27.087187 0 0 1 20.711324,18.33763"
       transform="rotate(140.88342)" /><path
       style="fill:#000000;stroke:#000000;stroke-width:0.264583;stroke-dasharray:0.529167, 1.05833;stroke-dashoffset:0"
       d="m 199.94255,93.310338 h 21.24137"
       id="path22" /><path
       style="fill:none;stroke:#000000;stroke-width:0.388033"
       id="path23"
       sodipodi:type="arc"
       sodipodi:cx="199.54568"
       sodipodi:cy="-93.225143"
       sodipodi:rx="10.384066"
       sodipodi:ry="10.384066"
       sodipodi:start="4.7415189"
       sodipodi:end="6.2825393"
       sodipodi:open="true"
       sodipodi:arc-type="arc"
       d="m 199.84813,-103.6048 a 10.384066,10.384066 0 0 1 10.08162,10.372948"
       transform="scale(1,-1)" /><circle
       style="fill:none;stroke:#000000;stroke-width:0.79375"
       id="circle23"
       cx="257.68207"
       cy="93.310341"
       r="21.241379" /><path
       style="fill:none;stroke:#000000;stroke-width:0.79375"
       d="m 257.68209,93.310338 h 21.24138"
       id="path24" /><text
       xml:space="preserve"
       style="font-weight:bold;font-size:5.29167px;line-height:1;font-family:Ubuntu;-inkscape-font-specification:'Ubuntu Bold';writing-mode:lr-tb;direction:ltr;fill:#000000;stroke:none;stroke-width:0.79375"
       x="268.27298"
       y="99.68734"
       id="text24"><tspan
         sodipodi:role="line"
         id="tspan24"
         style="fill:#000000;stroke:none;stroke-width:0.79375"
         x="268.27298"
         y="99.68734">=0</tspan></text><path
       d="m 265.2595,95.523097 v 0.144218 q -0.88532,0.228336 -0.88532,1.674495 0,1.566346 1.10166,1.842745 v -2.327458 q 0,-0.508754 0.0641,-0.741111 0.0641,-0.236356 0.28042,-0.412608 0.22033,-0.180267 0.5288,-0.180267 0.54081,0 1.00148,0.508754 0.46469,0.508754 0.46469,1.32597 0,0.765133 -0.47669,1.366035 -0.47271,0.600905 -1.43014,0.685025 v 1.646465 h -0.43264 v -1.646465 q -0.83324,-0.0721 -1.338,-0.620921 -0.50075,-0.552819 -0.50075,-1.434139 0,-0.793173 0.45669,-1.293928 0.45669,-0.504755 1.16574,-0.536796 z m 0.64897,3.661458 q 1.26188,-0.18829 1.26188,-1.63044 0,-0.664985 -0.27239,-1.113655 -0.2684,-0.452671 -0.63295,-0.452671 -0.13219,0 -0.22433,0.09614 -0.0881,0.09214 -0.11222,0.220336 -0.0201,0.128193 -0.0201,0.504754 z"
       id="path25"
       style="stroke-width:0.0216206" /><circle
       style="fill:#000000;stroke:none;stroke-width:0.79375"
       id="circle25"
       cx="257.68207"
       cy="93.310341"
       r="1.2740114" /><circle
       style="fill:#000080;stroke:none;stroke-width:0.79375"
       id="circle26"
       cx="278.92346"
       cy="93.310341"
       r="1.2740114" /></g></svg>
