<?xml version="1.0" encoding="UTF-8" standalone="no"?>
<!-- Created with Inkscape (http://www.inkscape.org/) -->

<svg
   width="217.64677mm"
   height="99.389473mm"
   viewBox="0 0 217.64677 99.38947"
   version="1.1"
   id="svg1"
   xml:space="preserve"
   inkscape:version="1.4.3rc (9500139e98, 2025-12-13)"
   sodipodi:docname="oscilador-1.svg"
   xmlns:inkscape="http://www.inkscape.org/namespaces/inkscape"
   xmlns:sodipodi="http://sodipodi.sourceforge.net/DTD/sodipodi-0.dtd"
   xmlns="http://www.w3.org/2000/svg"
   xmlns:svg="http://www.w3.org/2000/svg"><sodipodi:namedview
     id="namedview1"
     pagecolor="#ffffff"
     bordercolor="#000000"
     borderopacity="0.25"
     inkscape:showpageshadow="2"
     inkscape:pageopacity="0.0"
     inkscape:pagecheckerboard="0"
     inkscape:deskcolor="#d1d1d1"
     inkscape:document-units="mm"
     inkscape:zoom="0.9083743"
     inkscape:cx="353.92899"
     inkscape:cy="225.12746"
     inkscape:window-width="1866"
     inkscape:window-height="1011"
     inkscape:window-x="54"
     inkscape:window-y="32"
     inkscape:window-maximized="1"
     inkscape:current-layer="layer2"
     showguides="true" /><defs
     id="defs1"><marker
       style="overflow:visible"
       id="Triangle"
       refX="0"
       refY="0"
       orient="auto-start-reverse"
       inkscape:stockid="Triangle arrow"
       markerWidth="1"
       markerHeight="1"
       viewBox="0 0 1 1"
       inkscape:isstock="true"
       inkscape:collect="always"
       preserveAspectRatio="xMidYMid"><path
         transform="scale(0.5)"
         style="fill:context-stroke;fill-rule:evenodd;stroke:context-stroke;stroke-width:1pt"
         d="M 5.77,0 -2.88,5 V -5 Z"
         id="path135" /></marker></defs><g
     inkscape:groupmode="layer"
     id="layer2"
     inkscape:label="Back"
     transform="translate(25.219755,-33.19186)"><rect
       style="fill:#f9f9f9;stroke:none;stroke-width:0.181683;stroke-dasharray:0.363365, 0.72673;stroke-dashoffset:0"
       id="rect26"
       width="217.64677"
       height="99.389473"
       x="-25.219755"
       y="33.19186" /><rect
       style="fill:none;stroke:#000000;stroke-width:0.344113;stroke-dasharray:none;stroke-dashoffset:0"
       id="rect27"
       width="213.28011"
       height="95.022804"
       x="-23.036421"
       y="35.375195" /></g><g
     inkscape:label="Layer 1"
     inkscape:groupmode="layer"
     id="layer1"
     transform="translate(25.219755,-33.19186)"><path
       style="fill:#000000;stroke:#000000;stroke-width:0.264583;stroke-linecap:round;stroke-dasharray:0.264583, 1.05833;stroke-dashoffset:0"
       d="m 153.8556,64.076559 v 26.7684"
       id="path28" /><path
       style="fill:#d5d5ff;stroke:none;stroke-width:0.529167;stroke-linecap:round"
       id="path49"
       sodipodi:type="arc"
       sodipodi:cx="21.505167"
       sodipodi:cy="-87.425392"
       sodipodi:rx="23.121546"
       sodipodi:ry="23.121546"
       sodipodi:start="4.712389"
       sodipodi:end="0"
       sodipodi:arc-type="slice"
       d="m 21.505167,-110.54694 a 23.121546,23.121546 0 0 1 23.121546,23.121548 H 21.505167 Z"
       inkscape:transform-center-x="-11.567641"
       inkscape:transform-center-y="11.566115"
       transform="scale(1,-1)" /><path
       style="fill:#d5ffe6;stroke:none;stroke-width:0.529167;stroke-linecap:round"
       id="path46"
       sodipodi:type="arc"
       sodipodi:cx="-21.49143"
       sodipodi:cy="-87.425392"
       sodipodi:rx="23.121546"
       sodipodi:ry="23.121546"
       sodipodi:start="4.712389"
       sodipodi:end="0"
       sodipodi:arc-type="slice"
       d="M -21.49143,-110.54694 A 23.121546,23.121546 0 0 1 1.6301155,-87.425392 H -21.49143 Z"
       inkscape:transform-center-x="11.567641"
       inkscape:transform-center-y="11.566115"
       transform="scale(-1)" /><path
       style="fill:none;stroke:#000080;stroke-width:0.79375;stroke-linecap:round;stroke-dasharray:none"
       id="path50"
       sodipodi:type="arc"
       sodipodi:cx="21.505167"
       sodipodi:cy="-87.425392"
       sodipodi:rx="23.121546"
       sodipodi:ry="23.121546"
       sodipodi:start="4.712389"
       sodipodi:end="0"
       sodipodi:arc-type="arc"
       d="m 21.505167,-110.54694 a 23.121546,23.121546 0 0 1 23.121546,23.121548"
       sodipodi:open="true"
       transform="scale(1,-1)" /><path
       style="fill:#d5ffe6;stroke:none;stroke-width:0.529167;stroke-linecap:round"
       id="path44"
       sodipodi:type="arc"
       sodipodi:cx="-21.49143"
       sodipodi:cy="87.414703"
       sodipodi:rx="23.121546"
       sodipodi:ry="23.121546"
       sodipodi:start="4.712389"
       sodipodi:end="0"
       sodipodi:arc-type="slice"
       d="M -21.49143,64.293158 A 23.121546,23.121546 0 0 1 1.6301155,87.414703 H -21.49143 Z"
       inkscape:transform-center-x="11.567641"
       inkscape:transform-center-y="-11.566119"
       transform="scale(-1,1)" /><path
       style="fill:none;stroke:#008000;stroke-width:0.79375;stroke-linecap:round;stroke-dasharray:none"
       id="path45"
       sodipodi:type="arc"
       sodipodi:cx="-21.330696"
       sodipodi:cy="87.414703"
       sodipodi:rx="23.121546"
       sodipodi:ry="23.121546"
       sodipodi:start="4.712389"
       sodipodi:end="0"
       sodipodi:arc-type="arc"
       d="M -21.330696,64.293158 A 23.121546,23.121546 0 0 1 1.7908497,87.414703"
       sodipodi:open="true"
       transform="scale(-1,1)" /><path
       style="fill:#000080;stroke:#008000;stroke-width:0.79375;stroke-dasharray:none;stroke-dashoffset:0"
       d="m 101.00142,89.551829 h 26.2948"
       id="path19" /><text
       xml:space="preserve"
       style="font-weight:bold;font-size:5.29167px;line-height:1;font-family:Ubuntu;-inkscape-font-specification:'Ubuntu Bold';writing-mode:lr-tb;direction:ltr;fill:#0000ff;stroke:none;stroke-width:0.79375"
       x="17.900446"
       y="49.966354"
       id="text4"><tspan
         sodipodi:role="line"
         id="tspan4"
         style="fill:#0000ff;stroke:none;stroke-width:0.79375"
         x="17.900446"
         y="49.966354">Oscilador</tspan></text><text
       xml:space="preserve"
       style="font-weight:bold;font-size:7.16835px;line-height:1;font-family:Ubuntu;-inkscape-font-specification:'Ubuntu Bold';writing-mode:lr-tb;direction:ltr;fill:#000080;stroke:none;stroke-width:1.07525"
       x="165.28986"
       y="87.359657"
       id="text30"><tspan
         sodipodi:role="line"
         id="tspan30"
         style="fill:#000080;stroke:none;stroke-width:1.07525"
         x="165.28986"
         y="87.359657">1</tspan></text><text
       xml:space="preserve"
       style="font-weight:bold;font-size:7.16835px;line-height:1;font-family:Ubuntu;-inkscape-font-specification:'Ubuntu Bold';writing-mode:lr-tb;direction:ltr;fill:#008000;stroke:none;stroke-width:1.07525"
       x="88.763123"
       y="87.366829"
       id="text31"><tspan
         sodipodi:role="line"
         id="tspan31"
         style="fill:#008000;stroke:none;stroke-width:1.07525"
         x="88.763123"
         y="87.366829">0</tspan></text><path
       style="fill:#000080;stroke:#008000;stroke-width:0.79375;stroke-dasharray:none;stroke-dashoffset:0"
       d="M 74.706613,89.551829 H 101.00142"
       id="path31" /><path
       style="fill:#000080;stroke:#000000;stroke-width:0.79375;stroke-dasharray:none;stroke-dashoffset:0"
       d="m 153.98789,89.551829 v -9.35199"
       id="path33" /><circle
       style="fill:#000000;stroke:none;stroke-width:0.79375"
       id="circle33"
       cx="74.706627"
       cy="89.551811"
       r="1.2740114" /><path
       style="fill:#000080;stroke:#000080;stroke-width:0.79375;stroke-dasharray:none;stroke-dashoffset:0"
       d="m 153.59102,80.199839 h 26.2948"
       id="path32" /><g
       id="g38"
       transform="translate(-38.901922,-92.718672)"><text
         xml:space="preserve"
         style="font-weight:bold;font-size:5.29167px;line-height:1;font-family:Ubuntu;-inkscape-font-specification:'Ubuntu Bold';writing-mode:lr-tb;direction:ltr;fill:#000000;stroke:none;stroke-width:0.79375"
         x="111.76851"
         y="189.62202"
         id="text37"><tspan
           sodipodi:role="line"
           id="tspan37"
           style="fill:#000000;stroke:none;stroke-width:0.79375"
           x="111.76851"
           y="189.62202">=0</tspan></text><path
         d="m 108.75503,185.45777 v 0.14422 q -0.88533,0.22834 -0.88533,1.6745 0,1.56634 1.10166,1.84274 v -2.32746 q 0,-0.50875 0.0641,-0.74111 0.0641,-0.23635 0.28042,-0.41261 0.22033,-0.18026 0.5288,-0.18026 0.54081,0 1.00148,0.50875 0.4647,0.50875 0.4647,1.32597 0,0.76513 -0.4767,1.36604 -0.47271,0.6009 -1.43013,0.68502 v 1.64647 h -0.43265 v -1.64647 q -0.83324,-0.0721 -1.33799,-0.62092 -0.50076,-0.55282 -0.50076,-1.43414 0,-0.79317 0.45669,-1.29393 0.45669,-0.50475 1.16574,-0.53679 z m 0.64896,3.66146 q 1.26189,-0.18829 1.26189,-1.63044 0,-0.66498 -0.2724,-1.11365 -0.2684,-0.45268 -0.63295,-0.45268 -0.13219,0 -0.22433,0.0961 -0.0881,0.0921 -0.11222,0.22034 -0.02,0.12819 -0.02,0.50475 z"
         id="path37"
         style="stroke-width:0.0216206" /></g><text
       xml:space="preserve"
       style="font-weight:bold;font-size:4.56604px;line-height:1;font-family:Ubuntu;-inkscape-font-specification:'Ubuntu Bold';writing-mode:lr-tb;direction:ltr;fill:#000000;stroke:none;stroke-width:0.684906"
       x="125.064"
       y="96.711632"
       id="text38"><tspan
         sodipodi:role="line"
         id="tspan38"
         style="fill:#000000;stroke:none;stroke-width:0.684906"
         x="125.064"
         y="96.711632">=180</tspan></text><path
       d="m 122.46373,93.118408 v 0.12444 q -0.76392,0.19703 -0.76392,1.44488 0,1.35156 0.95058,1.59006 v -2.00831 q 0,-0.43899 0.0553,-0.63948 0.0553,-0.20395 0.24197,-0.35603 0.19012,-0.15555 0.45629,-0.15555 0.46665,0 0.86415,0.43899 0.40097,0.43899 0.40097,1.14415 0,0.66021 -0.41132,1.17871 -0.4079,0.51851 -1.23403,0.59109 v 1.42069 h -0.37332 v -1.42069 q -0.71898,-0.0622 -1.15452,-0.53577 -0.43209,-0.47702 -0.43209,-1.23748 0,-0.68441 0.39407,-1.1165 0.39407,-0.43554 1.00588,-0.46319 z m 0.55997,3.15938 q 1.08885,-0.16247 1.08885,-1.40687 0,-0.5738 -0.23505,-0.96094 -0.23159,-0.3906 -0.54615,-0.3906 -0.11407,0 -0.19357,0.083 -0.076,0.0795 -0.0968,0.19012 -0.0172,0.11062 -0.0172,0.43554 z"
       id="path38"
       style="stroke-width:0.0186558" /><text
       xml:space="preserve"
       style="font-weight:bold;font-size:4.56604px;line-height:1;font-family:Ubuntu;-inkscape-font-specification:'Ubuntu Bold';writing-mode:lr-tb;direction:ltr;fill:#000000;stroke:none;stroke-width:0.684906"
       x="151.3588"
       y="96.711632"
       id="text54"><tspan
         sodipodi:role="line"
         id="tspan54"
         style="fill:#000000;stroke:none;stroke-width:0.684906"
         x="151.3588"
         y="96.711632">=-90</tspan></text><path
       d="m 148.75853,93.118408 v 0.12444 q -0.76392,0.19703 -0.76392,1.44488 0,1.35156 0.95058,1.59006 v -2.00831 q 0,-0.43899 0.0553,-0.63948 0.0553,-0.20395 0.24197,-0.35603 0.19012,-0.15555 0.45629,-0.15555 0.46665,0 0.86415,0.43899 0.40097,0.43899 0.40097,1.14415 0,0.66021 -0.41132,1.17871 -0.4079,0.51851 -1.23403,0.59109 v 1.42069 h -0.37332 v -1.42069 q -0.71898,-0.0622 -1.15452,-0.53577 -0.43209,-0.47702 -0.43209,-1.23748 0,-0.68441 0.39407,-1.1165 0.39407,-0.43554 1.00588,-0.46319 z m 0.55997,3.15938 q 1.08885,-0.16247 1.08885,-1.40687 0,-0.5738 -0.23505,-0.96094 -0.23159,-0.3906 -0.54615,-0.3906 -0.11407,0 -0.19357,0.083 -0.076,0.0795 -0.0968,0.19012 -0.0172,0.11062 -0.0172,0.43554 z"
       id="path55"
       style="stroke-width:0.0186558" /><text
       xml:space="preserve"
       style="font-weight:bold;font-size:5.29167px;line-height:1;font-family:Ubuntu;-inkscape-font-specification:'Ubuntu Bold';writing-mode:lr-tb;direction:ltr;fill:#0000ff;stroke:none;stroke-width:0.79375"
       x="96.732246"
       y="50.056305"
       id="text39"><tspan
         sodipodi:role="line"
         id="tspan39"
         style="fill:#0000ff;stroke:none;stroke-width:0.79375"
         x="96.732246"
         y="50.056305">Señal periódica</tspan></text><circle
       style="fill:#000000;stroke:none;stroke-width:0.79375"
       id="circle19"
       cx="101.00144"
       cy="89.551811"
       r="1.2740114" /><text
       xml:space="preserve"
       style="font-weight:bold;font-size:7.16835px;line-height:1;font-family:Ubuntu;-inkscape-font-specification:'Ubuntu Bold';writing-mode:lr-tb;direction:ltr;fill:#008000;stroke:none;stroke-width:1.07525"
       x="113.87642"
       y="87.366829"
       id="text19"><tspan
         sodipodi:role="line"
         id="tspan19"
         style="fill:#008000;stroke:none;stroke-width:1.07525"
         x="113.87642"
         y="87.366829">0</tspan></text><text
       xml:space="preserve"
       style="font-weight:bold;font-size:4.56604px;line-height:1;font-family:Ubuntu;-inkscape-font-specification:'Ubuntu Bold';writing-mode:lr-tb;direction:ltr;fill:#000000;stroke:none;stroke-width:0.684906"
       x="97.669922"
       y="96.913506"
       id="text20"><tspan
         sodipodi:role="line"
         id="tspan20"
         style="fill:#000000;stroke:none;stroke-width:0.684906"
         x="97.669922"
         y="96.913506">=90</tspan></text><path
       d="m 95.069652,93.320289 v 0.12444 q -0.76392,0.19703 -0.76392,1.44488 0,1.35156 0.95058,1.59006 v -2.00831 q 0,-0.43899 0.0553,-0.63948 0.0553,-0.20395 0.24197,-0.35603 0.190116,-0.15555 0.456286,-0.15555 0.46665,0 0.86415,0.43899 0.40097,0.43899 0.40097,1.14415 0,0.66021 -0.41132,1.17871 -0.4079,0.51851 -1.23403,0.59109 v 1.42069 h -0.373316 v -1.42069 q -0.71898,-0.0622 -1.15452,-0.53577 -0.43209,-0.47702 -0.43209,-1.23748 0,-0.68441 0.39407,-1.1165 0.39407,-0.43554 1.00588,-0.46319 z m 0.559966,3.15938 q 1.08885,-0.16247 1.08885,-1.40687 0,-0.5738 -0.23505,-0.96094 -0.23159,-0.3906 -0.54615,-0.3906 -0.11407,0 -0.19357,0.083 -0.076,0.0795 -0.0968,0.19012 -0.0172,0.11062 -0.0172,0.43554 z"
       id="path20"
       style="stroke-width:0.0186558" /><text
       xml:space="preserve"
       style="font-weight:bold;font-size:5.29167px;line-height:1;font-family:Ubuntu;-inkscape-font-specification:'Ubuntu Bold';writing-mode:lr-tb;direction:ltr;fill:#000000;stroke:none;stroke-width:0.79375"
       x="83.280838"
       y="65.978523"
       id="text22"><tspan
         sodipodi:role="line"
         id="tspan22"
         style="font-style:normal;font-variant:normal;font-weight:normal;font-stretch:normal;font-family:Ubuntu;-inkscape-font-specification:Ubuntu;fill:#000000;stroke:none;stroke-width:0.79375"
         x="83.280838"
         y="65.978523">Ciclo</tspan></text><path
       style="fill:#000000;stroke:#000000;stroke-width:0.264583;stroke-linecap:round;stroke-dasharray:none;stroke-dashoffset:0;marker-start:url(#Triangle);marker-end:url(#Triangle)"
       d="M 75.581433,69.201759 H 100.09528"
       id="path23" /><text
       xml:space="preserve"
       style="font-weight:bold;font-size:5.29167px;line-height:1;font-family:Ubuntu;-inkscape-font-specification:'Ubuntu Bold';writing-mode:lr-tb;direction:ltr;fill:#000000;stroke:none;stroke-width:0.79375"
       x="109.67379"
       y="65.978523"
       id="text23"><tspan
         sodipodi:role="line"
         id="tspan23"
         style="font-style:normal;font-variant:normal;font-weight:normal;font-stretch:normal;font-family:Ubuntu;-inkscape-font-specification:Ubuntu;fill:#000000;stroke:none;stroke-width:0.79375"
         x="109.67379"
         y="65.978523">Ciclo</tspan></text><path
       style="fill:#000000;stroke:#000000;stroke-width:0.264583;stroke-linecap:round;stroke-dasharray:none;stroke-dashoffset:0;marker-start:url(#Triangle);marker-end:url(#Triangle)"
       d="m 101.97439,69.201759 h 24.51384"
       id="path24" /><text
       xml:space="preserve"
       style="font-weight:bold;font-size:5.29167px;line-height:1;font-family:Ubuntu;-inkscape-font-specification:'Ubuntu Bold';writing-mode:lr-tb;direction:ltr;fill:#000000;stroke:none;stroke-width:0.79375"
       x="162.75841"
       y="65.978523"
       id="text24"><tspan
         sodipodi:role="line"
         id="tspan24"
         style="font-style:normal;font-variant:normal;font-weight:normal;font-stretch:normal;font-family:Ubuntu;-inkscape-font-specification:Ubuntu;fill:#000000;stroke:none;stroke-width:0.79375"
         x="162.75841"
         y="65.978523">Ciclo</tspan></text><path
       style="fill:#000000;stroke:#000000;stroke-width:0.264583;stroke-linecap:round;stroke-dasharray:none;stroke-dashoffset:0;marker-start:url(#Triangle);marker-end:url(#Triangle)"
       d="m 155.0367,69.201759 h 23.93188"
       id="path25" /><path
       style="fill:#000000;stroke:#000000;stroke-width:0.264583;stroke-linecap:round;stroke-dasharray:0.264583, 1.05833;stroke-dashoffset:0"
       d="m 74.641878,64.076559 v 26.7684"
       id="path26" /><path
       style="fill:#000000;stroke:#000000;stroke-width:0.264583;stroke-linecap:round;stroke-dasharray:0.264583, 1.05833;stroke-dashoffset:0"
       d="m 100.86913,64.076559 v 26.7684"
       id="path27" /><path
       style="fill:#000000;stroke:#000000;stroke-width:0.264583;stroke-linecap:round;stroke-dasharray:0.264583, 1.05833;stroke-dashoffset:0"
       d="m 179.75353,64.076559 v 26.7684"
       id="path29" /><path
       style="fill:none;stroke:#000000;stroke-width:0.529175;stroke-dasharray:none;marker-start:url(#Triangle)"
       id="path6"
       sodipodi:type="arc"
       sodipodi:cx="50.598213"
       sodipodi:cy="67.597137"
       sodipodi:rx="17.394291"
       sodipodi:ry="17.618404"
       sodipodi:start="4.9011636"
       sodipodi:end="5.972985"
       sodipodi:open="true"
       sodipodi:arc-type="arc"
       d="M 53.862346,50.291725 A 17.394291,17.618404 0 0 1 67.162317,62.21913"
       transform="matrix(0.96219393,0.27236526,-0.26490751,0.96427383,0,0)" /><path
       style="fill:#d5ffe6;stroke:none;stroke-width:0.529167;stroke-linecap:round"
       id="path9"
       sodipodi:type="arc"
       sodipodi:cx="21.505167"
       sodipodi:cy="87.414703"
       sodipodi:rx="23.121546"
       sodipodi:ry="23.121546"
       sodipodi:start="4.712389"
       sodipodi:end="0"
       sodipodi:arc-type="slice"
       d="M 21.505167,64.293158 A 23.121546,23.121546 0 0 1 44.626713,87.414703 H 21.505167 Z"
       inkscape:transform-center-x="-11.567641"
       inkscape:transform-center-y="-11.566119" /><path
       style="fill:none;stroke:#008000;stroke-width:0.79375;stroke-linecap:round;stroke-dasharray:none"
       id="path11"
       sodipodi:type="arc"
       sodipodi:cx="21.505167"
       sodipodi:cy="87.414703"
       sodipodi:rx="23.121546"
       sodipodi:ry="23.121546"
       sodipodi:start="4.712389"
       sodipodi:end="0"
       sodipodi:arc-type="arc"
       d="M 21.505167,64.293158 A 23.121546,23.121546 0 0 1 44.626713,87.414703"
       sodipodi:open="true" /><path
       style="fill:none;stroke:#000000;stroke-width:0.529167;stroke-dasharray:1.05833, 1.05833;stroke-dashoffset:0"
       d="M 21.498555,87.419622 21.476014,64.502985"
       id="path22"
       inkscape:transform-center-x="0.011282269"
       inkscape:transform-center-y="-11.45831" /><path
       style="fill:none;stroke:#000000;stroke-width:0.529167;stroke-dasharray:1.05833, 1.05833;stroke-dashoffset:0"
       d="m 21.498558,87.419597 22.91664,-0.0225"
       id="path35"
       inkscape:transform-center-x="-11.458311"
       inkscape:transform-center-y="-0.011266349" /><text
       xml:space="preserve"
       style="font-weight:bold;font-size:7.16835px;line-height:1;font-family:Ubuntu;-inkscape-font-specification:'Ubuntu Bold';writing-mode:lr-tb;direction:ltr;fill:#008000;stroke:none;stroke-width:1.07525"
       x="31.044462"
       y="78.344933"
       id="text35"><tspan
         sodipodi:role="line"
         id="tspan35"
         style="fill:#008000;stroke:none;stroke-width:1.07525"
         x="31.044462"
         y="78.344933">0</tspan></text><text
       xml:space="preserve"
       style="font-weight:bold;font-size:7.16835px;line-height:1;font-family:Ubuntu;-inkscape-font-specification:'Ubuntu Bold';writing-mode:lr-tb;direction:ltr;fill:#000080;stroke:none;stroke-width:1.07525"
       x="28.723215"
       y="103.66248"
       id="text36"><tspan
         sodipodi:role="line"
         id="tspan36"
         style="fill:#000080;stroke:none;stroke-width:1.07525"
         x="28.723215"
         y="103.66248">1</tspan></text><text
       xml:space="preserve"
       style="font-weight:bold;font-size:7.16835px;line-height:1;font-family:Ubuntu;-inkscape-font-specification:'Ubuntu Bold';writing-mode:lr-tb;direction:ltr;fill:#008000;stroke:none;stroke-width:1.07525"
       x="7.7484446"
       y="78.344933"
       id="text40"><tspan
         sodipodi:role="line"
         id="tspan40"
         style="fill:#008000;stroke:none;stroke-width:1.07525"
         x="7.7484446"
         y="78.344933">0</tspan></text><circle
       style="fill:#000000;stroke:none;stroke-width:0.79375"
       id="circle40"
       cx="21.495722"
       cy="87.414703"
       r="1.2740114" /><g
       id="g41"
       transform="translate(-58.154967,-100.41231)"><text
         xml:space="preserve"
         style="font-weight:bold;font-size:5.29167px;line-height:1;font-family:Ubuntu;-inkscape-font-specification:'Ubuntu Bold';writing-mode:lr-tb;direction:ltr;fill:#000000;stroke:none;stroke-width:0.79375"
         x="111.76851"
         y="189.62202"
         id="text41"><tspan
           sodipodi:role="line"
           id="tspan41"
           style="fill:#000000;stroke:none;stroke-width:0.79375"
           x="111.76851"
           y="189.62202">=0</tspan></text><path
         d="m 108.75503,185.45777 v 0.14422 q -0.88533,0.22834 -0.88533,1.6745 0,1.56634 1.10166,1.84274 v -2.32746 q 0,-0.50875 0.0641,-0.74111 0.0641,-0.23635 0.28042,-0.41261 0.22033,-0.18026 0.5288,-0.18026 0.54081,0 1.00148,0.50875 0.4647,0.50875 0.4647,1.32597 0,0.76513 -0.4767,1.36604 -0.47271,0.6009 -1.43013,0.68502 v 1.64647 h -0.43265 v -1.64647 q -0.83324,-0.0721 -1.33799,-0.62092 -0.50076,-0.55282 -0.50076,-1.43414 0,-0.79317 0.45669,-1.29393 0.45669,-0.50475 1.16574,-0.53679 z m 0.64896,3.66146 q 1.26189,-0.18829 1.26189,-1.63044 0,-0.66498 -0.2724,-1.11365 -0.2684,-0.45268 -0.63295,-0.45268 -0.13219,0 -0.22433,0.0961 -0.0881,0.0921 -0.11222,0.22034 -0.02,0.12819 -0.02,0.50475 z"
         id="path41"
         style="stroke-width:0.0216206" /></g><circle
       style="fill:#000000;stroke:none;stroke-width:0.79375"
       id="circle41"
       cx="44.659161"
       cy="87.414703"
       r="1.2740114" /><text
       xml:space="preserve"
       style="font-weight:bold;font-size:4.56604px;line-height:1;font-family:Ubuntu;-inkscape-font-specification:'Ubuntu Bold';writing-mode:lr-tb;direction:ltr;fill:#000000;stroke:none;stroke-width:0.684906"
       x="19.733311"
       y="59.955688"
       id="text42"><tspan
         sodipodi:role="line"
         id="tspan42"
         style="fill:#000000;stroke:none;stroke-width:0.684906"
         x="19.733311"
         y="59.955688">=90</tspan></text><path
       d="m 17.133044,56.362472 v 0.12444 q -0.76392,0.19703 -0.76392,1.44488 0,1.35156 0.95058,1.59006 v -2.00831 q 0,-0.43899 0.0553,-0.63948 0.0553,-0.20395 0.24197,-0.35603 0.19012,-0.15555 0.45629,-0.15555 0.46665,0 0.86415,0.43899 0.40097,0.43899 0.40097,1.14415 0,0.66021 -0.41132,1.17871 -0.4079,0.51851 -1.23403,0.59109 v 1.42069 h -0.37332 v -1.42069 q -0.71898,-0.0622 -1.15452,-0.53577 -0.43209,-0.47702 -0.43209,-1.23748 0,-0.68441 0.39407,-1.1165 0.39407,-0.43554 1.00588,-0.46319 z m 0.55997,3.15938 q 1.08885,-0.16247 1.08885,-1.40687 0,-0.5738 -0.23505,-0.96094 -0.23159,-0.3906 -0.54615,-0.3906 -0.11407,0 -0.19357,0.083 -0.076,0.0795 -0.0968,0.19012 -0.0172,0.11062 -0.0172,0.43554 z"
       id="path42"
       style="stroke-width:0.0186558" /><circle
       style="fill:#000000;stroke:none;stroke-width:0.79375"
       id="circle43"
       cx="21.505167"
       cy="64.293159"
       r="1.2740114" /><path
       style="fill:none;stroke:#008000;stroke-width:0.79375;stroke-linecap:round;stroke-dasharray:none"
       id="path47"
       sodipodi:type="arc"
       sodipodi:cx="-21.330696"
       sodipodi:cy="-87.425392"
       sodipodi:rx="23.121546"
       sodipodi:ry="23.121546"
       sodipodi:start="4.712389"
       sodipodi:end="0"
       sodipodi:arc-type="arc"
       d="M -21.330696,-110.54694 A 23.121546,23.121546 0 0 1 1.7908497,-87.425392"
       sodipodi:open="true"
       transform="scale(-1)" /><path
       style="fill:none;stroke:#000000;stroke-width:0.529167;stroke-dasharray:1.05833, 1.05833;stroke-dashoffset:0"
       d="m -1.5275327,87.419597 22.9166397,-0.0225"
       id="path48"
       inkscape:transform-center-x="-11.458311"
       inkscape:transform-center-y="-0.011266349" /><circle
       style="fill:#000000;stroke:none;stroke-width:0.79375"
       id="circle48"
       cx="-1.7908497"
       cy="87.414703"
       r="1.2740114" /><text
       xml:space="preserve"
       style="font-weight:bold;font-size:7.16835px;line-height:1;font-family:Ubuntu;-inkscape-font-specification:'Ubuntu Bold';writing-mode:lr-tb;direction:ltr;fill:#008000;stroke:none;stroke-width:1.07525"
       x="7.7484446"
       y="103.66965"
       id="text50"><tspan
         sodipodi:role="line"
         id="tspan50"
         style="fill:#008000;stroke:none;stroke-width:1.07525"
         x="7.7484446"
         y="103.66965">0</tspan></text><path
       style="fill:none;stroke:#000000;stroke-width:0.529167;stroke-dasharray:1.05833, 1.05833;stroke-dashoffset:0"
       d="M 21.498555,110.153 21.476014,87.236362"
       id="path51"
       inkscape:transform-center-x="0.011282269"
       inkscape:transform-center-y="-11.45831" /><text
       xml:space="preserve"
       style="font-weight:bold;font-size:4.56604px;line-height:1;font-family:Ubuntu;-inkscape-font-specification:'Ubuntu Bold';writing-mode:lr-tb;direction:ltr;fill:#000000;stroke:none;stroke-width:0.684906"
       x="-16.129883"
       y="89.398277"
       id="text51"><tspan
         sodipodi:role="line"
         id="tspan51"
         style="fill:#000000;stroke:none;stroke-width:0.684906"
         x="-16.129883"
         y="89.398277">=180</tspan></text><path
       d="m -18.73015,85.80506 v 0.12444 q -0.76392,0.19703 -0.76392,1.44488 0,1.35156 0.95058,1.59006 v -2.00831 q 0,-0.43899 0.0553,-0.63948 0.0553,-0.20395 0.24197,-0.35603 0.19012,-0.15555 0.45629,-0.15555 0.46665,0 0.86415,0.43899 0.40097,0.43899 0.40097,1.14415 0,0.66021 -0.41132,1.17871 -0.4079,0.51851 -1.23403,0.59109 v 1.42069 h -0.37332 v -1.42069 q -0.71898,-0.0622 -1.15452,-0.53577 -0.43209,-0.47702 -0.43209,-1.23748 0,-0.68441 0.39407,-1.1165 0.39407,-0.43554 1.00588,-0.46319 z m 0.55997,3.15938 q 1.08885,-0.16247 1.08885,-1.40687 0,-0.5738 -0.23505,-0.96094 -0.23159,-0.3906 -0.54615,-0.3906 -0.11407,0 -0.19357,0.083 -0.076,0.0795 -0.0968,0.19012 -0.0172,0.11062 -0.0172,0.43554 z"
       id="path52"
       style="stroke-width:0.0186558" /><text
       xml:space="preserve"
       style="font-weight:bold;font-size:4.56604px;line-height:1;font-family:Ubuntu;-inkscape-font-specification:'Ubuntu Bold';writing-mode:lr-tb;direction:ltr;fill:#000000;stroke:none;stroke-width:0.684906"
       x="19.733311"
       y="117.28651"
       id="text52"><tspan
         sodipodi:role="line"
         id="tspan52"
         style="fill:#000000;stroke:none;stroke-width:0.684906"
         x="19.733311"
         y="117.28651">=-90</tspan></text><path
       d="m 17.133044,113.69329 v 0.12444 q -0.76392,0.19703 -0.76392,1.44488 0,1.35156 0.95058,1.59006 v -2.00831 q 0,-0.43899 0.0553,-0.63948 0.0553,-0.20395 0.24197,-0.35603 0.19012,-0.15555 0.45629,-0.15555 0.46665,0 0.86415,0.43899 0.40097,0.43899 0.40097,1.14415 0,0.66021 -0.41132,1.17871 -0.4079,0.51851 -1.23403,0.59109 v 1.42069 h -0.37332 v -1.42069 q -0.71898,-0.0622 -1.15452,-0.53577 -0.43209,-0.47702 -0.43209,-1.23748 0,-0.68441 0.39407,-1.1165 0.39407,-0.43554 1.00588,-0.46319 z m 0.55997,3.15938 q 1.08885,-0.16247 1.08885,-1.40687 0,-0.5738 -0.23505,-0.96094 -0.23159,-0.3906 -0.54615,-0.3906 -0.11407,0 -0.19357,0.083 -0.076,0.0795 -0.0968,0.19012 -0.0172,0.11062 -0.0172,0.43554 z"
       id="path53"
       style="stroke-width:0.0186558" /><circle
       style="fill:#000000;stroke:none;stroke-width:0.79375"
       id="circle53"
       cx="21.505167"
       cy="110.15326"
       r="1.2740114" /><path
       style="fill:#000080;stroke:#008000;stroke-width:0.79375;stroke-dasharray:none;stroke-dashoffset:0"
       d="m 127.29622,89.551829 h 26.2948"
       id="path54" /><circle
       style="fill:#000000;stroke:none;stroke-width:0.79375"
       id="circle55"
       cx="127.29624"
       cy="89.551811"
       r="1.2740114" /><text
       xml:space="preserve"
       style="font-weight:bold;font-size:7.16835px;line-height:1;font-family:Ubuntu;-inkscape-font-specification:'Ubuntu Bold';writing-mode:lr-tb;direction:ltr;fill:#008000;stroke:none;stroke-width:1.07525"
       x="140.17122"
       y="87.366829"
       id="text55"><tspan
         sodipodi:role="line"
         id="tspan55"
         style="fill:#008000;stroke:none;stroke-width:1.07525"
         x="140.17122"
         y="87.366829">0</tspan></text><text
       xml:space="preserve"
       style="font-weight:bold;font-size:5.29167px;line-height:1;font-family:Ubuntu;-inkscape-font-specification:'Ubuntu Bold';writing-mode:lr-tb;direction:ltr;fill:#000000;stroke:none;stroke-width:0.79375"
       x="135.9686"
       y="65.978523"
       id="text57"><tspan
         sodipodi:role="line"
         id="tspan57"
         style="font-style:normal;font-variant:normal;font-weight:normal;font-stretch:normal;font-family:Ubuntu;-inkscape-font-specification:Ubuntu;fill:#000000;stroke:none;stroke-width:0.79375"
         x="135.9686"
         y="65.978523">Ciclo</tspan></text><path
       style="fill:#000000;stroke:#000000;stroke-width:0.264583;stroke-linecap:round;stroke-dasharray:none;stroke-dashoffset:0;marker-start:url(#Triangle);marker-end:url(#Triangle)"
       d="m 128.26919,69.201759 h 24.51384"
       id="path57" /><path
       style="fill:#000000;stroke:#000000;stroke-width:0.264583;stroke-linecap:round;stroke-dasharray:0.264583, 1.05833;stroke-dashoffset:0"
       d="m 127.16393,64.076559 v 26.7684"
       id="path58" /><circle
       style="fill:#000000;stroke:none;stroke-width:0.79375"
       id="circle34"
       cx="153.98792"
       cy="89.551811"
       r="1.2740114" /></g></svg>
