<?xml version="1.0" encoding="UTF-8" standalone="no"?>
<!-- Created with Inkscape (http://www.inkscape.org/) -->

<svg
   width="177.20686mm"
   height="123.70818mm"
   viewBox="0 0 177.20687 123.70819"
   version="1.1"
   id="svg1"
   inkscape:version="1.4.2 (2cf3a72590, 2025-05-31)"
   sodipodi:docname="duplicacion-02.svg"
   xmlns:inkscape="http://www.inkscape.org/namespaces/inkscape"
   xmlns:sodipodi="http://sodipodi.sourceforge.net/DTD/sodipodi-0.dtd"
   xmlns="http://www.w3.org/2000/svg"
   xmlns:svg="http://www.w3.org/2000/svg">
  <sodipodi:namedview
     id="namedview1"
     pagecolor="#ffffff"
     bordercolor="#000000"
     borderopacity="0.25"
     inkscape:showpageshadow="2"
     inkscape:pageopacity="0.0"
     inkscape:pagecheckerboard="0"
     inkscape:deskcolor="#d1d1d1"
     inkscape:document-units="mm"
     inkscape:zoom="0.67793911"
     inkscape:cx="288.37398"
     inkscape:cy="255.92269"
     inkscape:window-width="1866"
     inkscape:window-height="1011"
     inkscape:window-x="54"
     inkscape:window-y="32"
     inkscape:window-maximized="1"
     inkscape:current-layer="layer2"
     showguides="true" />
  <defs
     id="defs1" />
  <g
     inkscape:groupmode="layer"
     id="layer2"
     inkscape:label="Back"
     style="display:inline"
     transform="translate(3.1816427e-8,-9.5423965)">
    <rect
       style="display:inline;fill:#ffffff;stroke-width:0.793752;stroke-linecap:round"
       id="rect1"
       width="177.20686"
       height="123.70818"
       x="-3.1816427e-08"
       y="9.5423965" />
    <rect
       style="display:inline;fill:#ffffff;stroke:#000000;stroke-width:1.05833;stroke-linecap:round;stroke-dasharray:none;stroke-dashoffset:0;stroke-opacity:1"
       id="rect21"
       width="170.73682"
       height="115.97314"
       x="2.9110031"
       y="13.985621" />
  </g>
  <g
     inkscape:label="Layer 1"
     inkscape:groupmode="layer"
     id="layer1"
     transform="translate(-6.7729998,-63.732296)">
    <path
       d="M 164.0057,152.74649 H 61.747247 v -37.61418"
       fill="none"
       stroke="#777777"
       stroke-width="0.768219"
       id="path35-8"
       sodipodi:nodetypes="ccc"
       style="display:inline" />
    <path
       d="M 26.099123,115.13231 H 164.0057"
       fill="none"
       stroke="#777777"
       stroke-width="0.768219"
       id="path6"
       sodipodi:nodetypes="cc"
       style="display:inline" />
    <g
       transform="matrix(0.16771027,0,0,0.16727901,31.279444,85.402628)"
       id="g8"
       style="display:inline;stroke-width:0.620319">
      <path
         d="M 7.702,32.42 49.971,-0.001 84.179,7.7244 56.846,124.4644 30.239,118.4552 51.26,25.2762 20.023,44.2022 Z"
         fill="#008000"
         fill-rule="evenodd"
         id="path7"
         style="stroke-width:0.620319" />
      <path
         d="m 46.13,117.28 21.355,28.257 -17.909,21.368 6.1972,5.5127 m -14.032,-54.45 -12.4,28.26 -28.242,5.5127 2.0667,8.9585"
         fill="none"
         stroke="#008000"
         stroke-linecap="round"
         stroke-linejoin="round"
         stroke-width="1.36222"
         id="path8" />
    </g>
    <ellipse
       style="display:inline;fill:#777777;stroke:#777777;stroke-width:0.264584;stroke-linecap:round"
       id="path3"
       cx="61.747242"
       cy="115.13231"
       rx="1.5235051"
       ry="1.5745846" />
    <text
       xml:space="preserve"
       style="font-weight:bold;font-size:4.93889px;line-height:1;font-family:Ubuntu;-inkscape-font-specification:'Ubuntu Bold';text-align:center;writing-mode:lr-tb;direction:ltr;text-anchor:middle;display:inline;fill:#000000;stroke:none;stroke-width:0.264582;stroke-linecap:round;stroke-dasharray:none"
       x="39.268887"
       y="78.487259"
       id="text3"><tspan
         sodipodi:role="line"
         id="tspan3"
         style="font-size:4.93889px;fill:#000000;stroke:none;stroke-width:0.264582"
         x="39.268887"
         y="78.487259">Bit original</tspan></text>
    <ellipse
       style="display:inline;fill:#777777;stroke:#777777;stroke-width:0.264584;stroke-linecap:round"
       id="ellipse11"
       cx="100.71879"
       cy="115.13231"
       rx="1.5235051"
       ry="1.5745846" />
    <ellipse
       style="display:inline;fill:#777777;stroke:#777777;stroke-width:0.264584;stroke-linecap:round"
       id="ellipse12"
       cx="100.71879"
       cy="152.74649"
       rx="1.5235051"
       ry="1.5745846" />
    <path
       d="M 164.0057,129.78345 H 100.71879 V 115.25016"
       fill="none"
       stroke="#777777"
       stroke-width="0.768221"
       id="path12"
       sodipodi:nodetypes="ccc"
       style="display:inline" />
    <path
       d="M 164.0057,167.27978 H 100.71879 V 152.74649"
       fill="none"
       stroke="#777777"
       stroke-width="0.768221"
       id="path13"
       sodipodi:nodetypes="ccc"
       style="display:inline" />
    <g
       transform="matrix(0.08385512,0,0,0.08363949,78.923246,100.11626)"
       id="g21"
       style="display:inline;stroke-width:1.24064">
      <path
         d="M 7.702,32.42 49.971,-0.001 84.179,7.7244 56.846,124.4644 30.239,118.4552 51.26,25.2762 20.023,44.2022 Z"
         fill="#008000"
         fill-rule="evenodd"
         id="path20"
         style="stroke-width:1.24064" />
      <path
         d="m 46.13,117.28 21.355,28.257 -17.909,21.368 6.1972,5.5127 m -14.032,-54.45 -12.4,28.26 -28.242,5.5127 2.0667,8.9585"
         fill="none"
         stroke="#008000"
         stroke-linecap="round"
         stroke-linejoin="round"
         stroke-width="2.72444"
         id="path21" />
    </g>
    <g
       transform="matrix(0.04090696,0,0,0.04115851,116.82463,121.93186)"
       id="g24"
       style="display:inline;stroke-width:2.53214">
      <path
         d="M 7.702,32.42 49.971,-0.001 84.179,7.7244 56.846,124.4644 30.239,118.4552 51.26,25.2762 20.023,44.2022 Z"
         fill="#008000"
         fill-rule="evenodd"
         id="path23"
         style="stroke-width:2.53214" />
      <path
         d="m 46.13,117.28 21.355,28.257 -17.909,21.368 6.1972,5.5127 m -14.032,-54.45 -12.4,28.26 -28.242,5.5127 2.0667,8.9585"
         fill="none"
         stroke="#008000"
         stroke-linecap="round"
         stroke-linejoin="round"
         stroke-width="5.56057"
         id="path24" />
    </g>
    <g
       transform="matrix(0.04090696,0,0,0.04115851,116.82463,107.06926)"
       id="g26"
       style="display:inline;stroke-width:2.53214">
      <path
         d="M 7.702,32.42 49.971,-0.001 84.179,7.7244 56.846,124.4644 30.239,118.4552 51.26,25.2762 20.023,44.2022 Z"
         fill="#008000"
         fill-rule="evenodd"
         id="path25"
         style="stroke-width:2.53214" />
      <path
         d="m 46.13,117.28 21.355,28.257 -17.909,21.368 6.1972,5.5127 m -14.032,-54.45 -12.4,28.26 -28.242,5.5127 2.0667,8.9585"
         fill="none"
         stroke="#008000"
         stroke-linecap="round"
         stroke-linejoin="round"
         stroke-width="5.56057"
         id="path26" />
    </g>
    <g
       transform="matrix(0.08385512,0,0,0.08363949,78.923246,137.09961)"
       id="g28"
       style="display:inline;stroke-width:1.24064">
      <path
         d="M 7.702,32.42 49.971,-0.001 84.179,7.7244 56.846,124.4644 30.239,118.4552 51.26,25.2762 20.023,44.2022 Z"
         fill="#008000"
         fill-rule="evenodd"
         id="path27"
         style="stroke-width:1.24064" />
      <path
         d="m 46.13,117.28 21.355,28.257 -17.909,21.368 6.1972,5.5127 m -14.032,-54.45 -12.4,28.26 -28.242,5.5127 2.0667,8.9585"
         fill="none"
         stroke="#008000"
         stroke-linecap="round"
         stroke-linejoin="round"
         stroke-width="2.72444"
         id="path28" />
    </g>
    <g
       transform="matrix(0.04090696,0,0,0.04115851,116.82463,159.59349)"
       id="g30"
       style="display:inline;stroke-width:2.53214">
      <path
         d="M 7.702,32.42 49.971,-0.001 84.179,7.7244 56.846,124.4644 30.239,118.4552 51.26,25.2762 20.023,44.2022 Z"
         fill="#008000"
         fill-rule="evenodd"
         id="path29"
         style="stroke-width:2.53214" />
      <path
         d="m 46.13,117.28 21.355,28.257 -17.909,21.368 6.1972,5.5127 m -14.032,-54.45 -12.4,28.26 -28.242,5.5127 2.0667,8.9585"
         fill="none"
         stroke="#008000"
         stroke-linecap="round"
         stroke-linejoin="round"
         stroke-width="5.56057"
         id="path30" />
    </g>
    <g
       transform="matrix(0.04090696,0,0,0.04115851,116.82463,144.73089)"
       id="g32"
       style="display:inline;stroke-width:2.53214">
      <path
         d="M 7.702,32.42 49.971,-0.001 84.179,7.7244 56.846,124.4644 30.239,118.4552 51.26,25.2762 20.023,44.2022 Z"
         fill="#008000"
         fill-rule="evenodd"
         id="path31"
         style="stroke-width:2.53214" />
      <path
         d="m 46.13,117.28 21.355,28.257 -17.909,21.368 6.1972,5.5127 m -14.032,-54.45 -12.4,28.26 -28.242,5.5127 2.0667,8.9585"
         fill="none"
         stroke="#008000"
         stroke-linecap="round"
         stroke-linejoin="round"
         stroke-width="5.56057"
         id="path32" />
    </g>
    <ellipse
       style="display:inline;fill:#777777;stroke:#777777;stroke-width:0.264584;stroke-linecap:round"
       id="ellipse32"
       cx="134.27042"
       cy="115.13231"
       rx="1.5235051"
       ry="1.5745846" />
    <ellipse
       style="display:inline;fill:#777777;stroke:#777777;stroke-width:0.264584;stroke-linecap:round"
       id="ellipse33"
       cx="134.27042"
       cy="152.74649"
       rx="1.5235051"
       ry="1.5745846" />
    <path
       d="m 164.0057,122.85132 h -29.64099 v -7.50833"
       fill="none"
       stroke="#777777"
       stroke-width="0.768221"
       id="path33"
       sodipodi:nodetypes="ccc"
       style="display:inline" />
    <path
       d="m 164.0057,159.82108 h -29.64099 v -7.50833"
       fill="none"
       stroke="#777777"
       stroke-width="0.768221"
       id="path34"
       sodipodi:nodetypes="ccc"
       style="display:inline" />
    <ellipse
       style="display:inline;fill:#777777;stroke:#777777;stroke-width:0.264584;stroke-linecap:round"
       id="ellipse34"
       cx="134.27042"
       cy="129.97455"
       rx="1.5235051"
       ry="1.5745846" />
    <path
       d="m 164.0057,137.69356 h -29.64099 v -7.50833"
       fill="none"
       stroke="#777777"
       stroke-width="0.768221"
       id="path35"
       sodipodi:nodetypes="ccc"
       style="display:inline" />
    <ellipse
       style="display:inline;fill:#777777;stroke:#777777;stroke-width:0.264584;stroke-linecap:round"
       id="ellipse35"
       cx="134.27042"
       cy="168.09763"
       rx="1.5235051"
       ry="1.5745846" />
    <path
       d="m 164.0057,175.17222 h -29.64099 v -7.50833"
       fill="none"
       stroke="#777777"
       stroke-width="0.768221"
       id="path36"
       sodipodi:nodetypes="ccc"
       style="display:inline" />
    <g
       transform="matrix(0.01976682,0,0,0.02024843,144.95497,111.03764)"
       id="g41"
       style="display:inline;stroke-width:5.1934">
      <path
         d="M 7.702,32.42 49.971,-0.001 84.179,7.7244 56.846,124.4644 30.239,118.4552 51.26,25.2762 20.023,44.2022 Z"
         fill="#008000"
         fill-rule="evenodd"
         id="path40"
         style="stroke-width:5.1934" />
      <path
         d="m 46.13,117.28 21.355,28.257 -17.909,21.368 6.1972,5.5127 m -14.032,-54.45 -12.4,28.26 -28.242,5.5127 2.0667,8.9585"
         fill="none"
         stroke="#008000"
         stroke-linecap="round"
         stroke-linejoin="round"
         stroke-width="11.4047"
         id="path41" />
    </g>
    <g
       transform="matrix(0.01976682,0,0,0.02024843,144.83335,118.81894)"
       id="g43"
       style="display:inline;stroke-width:5.1934">
      <path
         d="M 7.702,32.42 49.971,-0.001 84.179,7.7244 56.846,124.4644 30.239,118.4552 51.26,25.2762 20.023,44.2022 Z"
         fill="#008000"
         fill-rule="evenodd"
         id="path42"
         style="stroke-width:5.1934" />
      <path
         d="m 46.13,117.28 21.355,28.257 -17.909,21.368 6.1972,5.5127 m -14.032,-54.45 -12.4,28.26 -28.242,5.5127 2.0667,8.9585"
         fill="none"
         stroke="#008000"
         stroke-linecap="round"
         stroke-linejoin="round"
         stroke-width="11.4047"
         id="path43" />
    </g>
    <g
       transform="matrix(0.01976682,0,0,0.02024843,144.95497,125.57542)"
       id="g45"
       style="display:inline;stroke-width:5.1934">
      <path
         d="M 7.702,32.42 49.971,-0.001 84.179,7.7244 56.846,124.4644 30.239,118.4552 51.26,25.2762 20.023,44.2022 Z"
         fill="#008000"
         fill-rule="evenodd"
         id="path44"
         style="stroke-width:5.1934" />
      <path
         d="m 46.13,117.28 21.355,28.257 -17.909,21.368 6.1972,5.5127 m -14.032,-54.45 -12.4,28.26 -28.242,5.5127 2.0667,8.9585"
         fill="none"
         stroke="#008000"
         stroke-linecap="round"
         stroke-linejoin="round"
         stroke-width="11.4047"
         id="path45" />
    </g>
    <g
       transform="matrix(0.01976682,0,0,0.02024843,144.83335,133.35672)"
       id="g47"
       style="display:inline;stroke-width:5.1934">
      <path
         d="M 7.702,32.42 49.971,-0.001 84.179,7.7244 56.846,124.4644 30.239,118.4552 51.26,25.2762 20.023,44.2022 Z"
         fill="#008000"
         fill-rule="evenodd"
         id="path46"
         style="stroke-width:5.1934" />
      <path
         d="m 46.13,117.28 21.355,28.257 -17.909,21.368 6.1972,5.5127 m -14.032,-54.45 -12.4,28.26 -28.242,5.5127 2.0667,8.9585"
         fill="none"
         stroke="#008000"
         stroke-linecap="round"
         stroke-linejoin="round"
         stroke-width="11.4047"
         id="path47" />
    </g>
    <g
       transform="matrix(0.01976682,0,0,0.02024843,144.95497,148.50413)"
       id="g49"
       style="display:inline;stroke-width:5.1934">
      <path
         d="M 7.702,32.42 49.971,-0.001 84.179,7.7244 56.846,124.4644 30.239,118.4552 51.26,25.2762 20.023,44.2022 Z"
         fill="#008000"
         fill-rule="evenodd"
         id="path48"
         style="stroke-width:5.1934" />
      <path
         d="m 46.13,117.28 21.355,28.257 -17.909,21.368 6.1972,5.5127 m -14.032,-54.45 -12.4,28.26 -28.242,5.5127 2.0667,8.9585"
         fill="none"
         stroke="#008000"
         stroke-linecap="round"
         stroke-linejoin="round"
         stroke-width="11.4047"
         id="path49" />
    </g>
    <g
       transform="matrix(0.01976682,0,0,0.02024843,144.83335,155.63001)"
       id="g51"
       style="display:inline;stroke-width:5.1934">
      <path
         d="M 7.702,32.42 49.971,-0.001 84.179,7.7244 56.846,124.4644 30.239,118.4552 51.26,25.2762 20.023,44.2022 Z"
         fill="#008000"
         fill-rule="evenodd"
         id="path50"
         style="stroke-width:5.1934" />
      <path
         d="m 46.13,117.28 21.355,28.257 -17.909,21.368 6.1972,5.5127 m -14.032,-54.45 -12.4,28.26 -28.242,5.5127 2.0667,8.9585"
         fill="none"
         stroke="#008000"
         stroke-linecap="round"
         stroke-linejoin="round"
         stroke-width="11.4047"
         id="path51" />
    </g>
    <g
       transform="matrix(0.01976682,0,0,0.02024843,144.95497,163.17989)"
       id="g53"
       style="display:inline;stroke-width:5.1934">
      <path
         d="M 7.702,32.42 49.971,-0.001 84.179,7.7244 56.846,124.4644 30.239,118.4552 51.26,25.2762 20.023,44.2022 Z"
         fill="#008000"
         fill-rule="evenodd"
         id="path52"
         style="stroke-width:5.1934" />
      <path
         d="m 46.13,117.28 21.355,28.257 -17.909,21.368 6.1972,5.5127 m -14.032,-54.45 -12.4,28.26 -28.242,5.5127 2.0667,8.9585"
         fill="none"
         stroke="#008000"
         stroke-linecap="round"
         stroke-linejoin="round"
         stroke-width="11.4047"
         id="path53" />
    </g>
    <g
       transform="matrix(0.01976682,0,0,0.02024843,144.83335,171.06468)"
       id="g55"
       style="display:inline;stroke-width:5.1934">
      <path
         d="M 7.702,32.42 49.971,-0.001 84.179,7.7244 56.846,124.4644 30.239,118.4552 51.26,25.2762 20.023,44.2022 Z"
         fill="#008000"
         fill-rule="evenodd"
         id="path54"
         style="stroke-width:5.1934" />
      <path
         d="m 46.13,117.28 21.355,28.257 -17.909,21.368 6.1972,5.5127 m -14.032,-54.45 -12.4,28.26 -28.242,5.5127 2.0667,8.9585"
         fill="none"
         stroke="#008000"
         stroke-linecap="round"
         stroke-linejoin="round"
         stroke-width="11.4047"
         id="path55" />
    </g>
    <text
       xml:space="preserve"
       style="font-weight:bold;font-size:4.93889px;line-height:1;font-family:Ubuntu;-inkscape-font-specification:'Ubuntu Bold';text-align:center;writing-mode:lr-tb;direction:ltr;text-anchor:middle;display:inline;fill:#000000;stroke:none;stroke-width:0.264582;stroke-linecap:round;stroke-dasharray:none"
       x="83.147606"
       y="78.487259"
       id="text55"><tspan
         sodipodi:role="line"
         id="tspan55"
         style="font-size:4.93889px;fill:#000000;stroke:none;stroke-width:0.264582"
         x="83.147606"
         y="78.487259">Primera</tspan><tspan
         sodipodi:role="line"
         style="font-size:4.93889px;fill:#000000;stroke:none;stroke-width:0.264582"
         x="83.147606"
         y="83.426147"
         id="tspan56">bifurcación</tspan></text>
    <text
       xml:space="preserve"
       style="font-weight:bold;font-size:4.93889px;line-height:1;font-family:Ubuntu;-inkscape-font-specification:'Ubuntu Bold';text-align:center;writing-mode:lr-tb;direction:ltr;text-anchor:middle;display:inline;fill:#000000;stroke:none;stroke-width:0.264582;stroke-linecap:round;stroke-dasharray:none"
       x="115.15975"
       y="78.487259"
       id="text58"><tspan
         sodipodi:role="line"
         id="tspan57"
         style="font-size:4.93889px;fill:#000000;stroke:none;stroke-width:0.264582"
         x="115.15975"
         y="78.487259">Segunda</tspan><tspan
         sodipodi:role="line"
         style="font-size:4.93889px;fill:#000000;stroke:none;stroke-width:0.264582"
         x="115.15975"
         y="83.426147"
         id="tspan58">bifurcación</tspan></text>
    <text
       xml:space="preserve"
       style="font-weight:bold;font-size:4.93889px;line-height:1;font-family:Ubuntu;-inkscape-font-specification:'Ubuntu Bold';text-align:center;writing-mode:lr-tb;direction:ltr;text-anchor:middle;display:inline;fill:#000000;stroke:none;stroke-width:0.264582;stroke-linecap:round;stroke-dasharray:none"
       x="147.0007"
       y="78.487259"
       id="text60"><tspan
         sodipodi:role="line"
         id="tspan59"
         style="font-size:4.93889px;fill:#000000;stroke:none;stroke-width:0.264582"
         x="147.0007"
         y="78.487259">Tercera</tspan><tspan
         sodipodi:role="line"
         style="font-size:4.93889px;fill:#000000;stroke:none;stroke-width:0.264582"
         x="147.0007"
         y="83.426147"
         id="tspan60">bifurcación</tspan></text>
  </g>
</svg>
