<?xml version="1.0" encoding="UTF-8" standalone="no"?>
<!-- Created with Inkscape (http://www.inkscape.org/) -->

<svg
   width="181.8378mm"
   height="99.389473mm"
   viewBox="0 0 181.8378 99.38947"
   version="1.1"
   id="svg1"
   xml:space="preserve"
   inkscape:version="1.4.2 (cdb4348684, 2025-11-24)"
   sodipodi:docname="osciladores-2.svg"
   xmlns:inkscape="http://www.inkscape.org/namespaces/inkscape"
   xmlns:sodipodi="http://sodipodi.sourceforge.net/DTD/sodipodi-0.dtd"
   xmlns="http://www.w3.org/2000/svg"
   xmlns:svg="http://www.w3.org/2000/svg"><sodipodi:namedview
     id="namedview1"
     pagecolor="#ffffff"
     bordercolor="#000000"
     borderopacity="0.25"
     inkscape:showpageshadow="2"
     inkscape:pageopacity="0.0"
     inkscape:pagecheckerboard="0"
     inkscape:deskcolor="#d1d1d1"
     inkscape:document-units="mm"
     inkscape:zoom="1.0192635"
     inkscape:cx="337.98916"
     inkscape:cy="223.20039"
     inkscape:window-width="1866"
     inkscape:window-height="1011"
     inkscape:window-x="54"
     inkscape:window-y="32"
     inkscape:window-maximized="1"
     inkscape:current-layer="layer1" /><defs
     id="defs1"><marker
       style="overflow:visible"
       id="Triangle"
       refX="0"
       refY="0"
       orient="auto-start-reverse"
       inkscape:stockid="Triangle arrow"
       markerWidth="1"
       markerHeight="1"
       viewBox="0 0 1 1"
       inkscape:isstock="true"
       inkscape:collect="always"
       preserveAspectRatio="xMidYMid"><path
         transform="scale(0.5)"
         style="fill:context-stroke;fill-rule:evenodd;stroke:context-stroke;stroke-width:1pt"
         d="M 5.77,0 -2.88,5 V -5 Z"
         id="path135" /></marker></defs><g
     inkscape:groupmode="layer"
     id="layer2"
     inkscape:label="Back"
     transform="translate(25.219753,-33.19186)"><rect
       style="fill:#f9f9f9;stroke:none;stroke-width:0.181683;stroke-dasharray:0.363364, 0.72673;stroke-dashoffset:0"
       id="rect26"
       width="181.8378"
       height="99.389473"
       x="-25.219753"
       y="33.19186" /><rect
       style="fill:#f9f9f9;stroke:#000000;stroke-width:0.344113;stroke-dasharray:none;stroke-dashoffset:0"
       id="rect27"
       width="177.47113"
       height="95.022804"
       x="-23.036419"
       y="35.375195" /></g><g
     inkscape:label="Layer 1"
     inkscape:groupmode="layer"
     id="layer1"
     transform="translate(25.219753,-33.19186)"><path
       style="fill:#d5ffe6;stroke:#008000;stroke-width:0.79375"
       id="path28"
       sodipodi:type="arc"
       sodipodi:cx="30.235296"
       sodipodi:cy="-95.062042"
       sodipodi:rx="21.241379"
       sodipodi:ry="21.241379"
       sodipodi:start="0"
       sodipodi:end="3.1141286"
       sodipodi:open="true"
       sodipodi:arc-type="arc"
       d="M 51.476675,-95.062042 A 21.241379,21.241379 0 0 1 30.526974,-73.822666 21.241379,21.241379 0 0 1 9.0019279,-94.478741"
       transform="scale(1,-1)" /><path
       style="fill:#d5d5ff;stroke:#000080;stroke-width:0.79375"
       id="path1"
       sodipodi:type="arc"
       sodipodi:cx="30.235296"
       sodipodi:cy="93.895447"
       sodipodi:rx="21.241379"
       sodipodi:ry="21.241379"
       sodipodi:start="0"
       sodipodi:end="3.1141286"
       sodipodi:open="true"
       sodipodi:arc-type="arc"
       d="M 51.476675,93.895447 A 21.241379,21.241379 0 0 1 30.526974,115.13482 21.241379,21.241379 0 0 1 9.0019279,94.478748" /><path
       style="fill:none;stroke:#000000;stroke-width:0.79375"
       d="M 30.235286,93.895448 42.742262,76.726518"
       id="path2"
       inkscape:transform-center-x="-6.2534775"
       inkscape:transform-center-y="-8.584465" /><g
       id="g37"
       transform="translate(-49.082964,-93.104552)"><text
         xml:space="preserve"
         style="font-weight:bold;font-size:5.29167px;line-height:1;font-family:Ubuntu;-inkscape-font-specification:'Ubuntu Bold';writing-mode:lr-tb;direction:ltr;fill:#000000;stroke:none;stroke-width:0.79375"
         x="111.76851"
         y="189.62202"
         id="text3"><tspan
           sodipodi:role="line"
           id="tspan3"
           style="fill:#000000;stroke:none;stroke-width:0.79375"
           x="111.76851"
           y="189.62202">=0</tspan></text><path
         d="m 108.75503,185.45777 v 0.14422 q -0.88533,0.22834 -0.88533,1.6745 0,1.56634 1.10166,1.84274 v -2.32746 q 0,-0.50875 0.0641,-0.74111 0.0641,-0.23635 0.28042,-0.41261 0.22033,-0.18026 0.5288,-0.18026 0.54081,0 1.00148,0.50875 0.4647,0.50875 0.4647,1.32597 0,0.76513 -0.4767,1.36604 -0.47271,0.6009 -1.43013,0.68502 v 1.64647 h -0.43265 v -1.64647 q -0.83324,-0.0721 -1.33799,-0.62092 -0.50076,-0.55282 -0.50076,-1.43414 0,-0.79317 0.45669,-1.29393 0.45669,-0.50475 1.16574,-0.53679 z m 0.64896,3.66146 q 1.26189,-0.18829 1.26189,-1.63044 0,-0.66498 -0.2724,-1.11365 -0.2684,-0.45268 -0.63295,-0.45268 -0.13219,0 -0.22433,0.0961 -0.0881,0.0921 -0.11222,0.22034 -0.02,0.12819 -0.02,0.50475 z"
         id="path1-9"
         style="stroke-width:0.0216206" /></g><circle
       style="fill:#000000;stroke:none;stroke-width:0.79375"
       id="path3"
       cx="30.235296"
       cy="93.895447"
       r="1.2740114" /><text
       xml:space="preserve"
       style="font-weight:bold;font-size:5.29167px;line-height:1;font-family:Ubuntu;-inkscape-font-specification:'Ubuntu Bold';writing-mode:lr-tb;direction:ltr;fill:#0000ff;stroke:none;stroke-width:0.79375"
       x="17.900446"
       y="49.966354"
       id="text4"><tspan
         sodipodi:role="line"
         id="tspan4"
         style="fill:#0000ff;stroke:none;stroke-width:0.79375"
         x="17.900446"
         y="49.966354">Oscilador</tspan></text><circle
       style="fill:#000080;stroke:none;stroke-width:0.79375"
       id="circle4"
       cx="42.180519"
       cy="77.49765"
       r="1.2740114" /><path
       style="fill:none;stroke:#000000;stroke-width:0.529167;stroke-dasharray:none;marker-start:url(#Triangle)"
       id="path8"
       sodipodi:type="arc"
       sodipodi:cx="-35.523411"
       sodipodi:cy="90.749016"
       sodipodi:rx="27.087187"
       sodipodi:ry="27.087187"
       sodipodi:start="4.9011636"
       sodipodi:end="5.972985"
       sodipodi:open="true"
       sodipodi:arc-type="arc"
       d="M -30.440353,64.143035 A 27.087187,27.087187 0 0 1 -9.7290292,82.480669"
       transform="rotate(-39.116579)" /><path
       style="fill:#000000;stroke:#000000;stroke-width:0.264583;stroke-dasharray:0.529167, 1.05833;stroke-dashoffset:0"
       d="m 30.235296,93.996838 h 21.24138"
       id="path9" /><path
       style="fill:none;stroke:#000000;stroke-width:0.388033"
       id="circle9"
       sodipodi:type="arc"
       sodipodi:cx="30.277906"
       sodipodi:cy="93.871124"
       sodipodi:rx="10.384066"
       sodipodi:ry="10.384066"
       sodipodi:start="5.3267605"
       sodipodi:end="6.2825393"
       sodipodi:open="true"
       sodipodi:arc-type="arc"
       d="m 36.26375,85.385932 a 10.384066,10.384066 0 0 1 4.39822,8.478484" /><g
       id="g36"
       transform="translate(-47.755378,-91.029302)"><text
         xml:space="preserve"
         style="font-weight:bold;font-size:4.56604px;line-height:1;font-family:Ubuntu;-inkscape-font-specification:'Ubuntu Bold';writing-mode:lr-tb;direction:ltr;fill:#000000;stroke:none;stroke-width:0.684906"
         x="40.985947"
         y="187.73438"
         id="text10"><tspan
           sodipodi:role="line"
           id="tspan10"
           style="fill:#000000;stroke:none;stroke-width:0.684906"
           x="40.985947"
           y="187.73438">=180</tspan></text><path
         d="m 38.38568,184.14115 v 0.12444 q -0.76392,0.19703 -0.76392,1.44488 0,1.35156 0.95058,1.59006 v -2.00831 q 0,-0.43899 0.0553,-0.63948 0.0553,-0.20395 0.24197,-0.35603 0.19012,-0.15555 0.45629,-0.15555 0.46665,0 0.86415,0.43899 0.40097,0.43899 0.40097,1.14415 0,0.66021 -0.41132,1.17871 -0.4079,0.51851 -1.23403,0.59109 v 1.42069 h -0.37332 v -1.42069 q -0.71898,-0.0622 -1.15452,-0.53577 -0.43209,-0.47702 -0.43209,-1.23748 0,-0.68441 0.39407,-1.1165 0.39407,-0.43554 1.00588,-0.46319 z m 0.55997,3.15938 q 1.08885,-0.16247 1.08885,-1.40687 0,-0.5738 -0.23505,-0.96094 -0.23159,-0.3906 -0.54615,-0.3906 -0.11407,0 -0.19357,0.083 -0.076,0.0795 -0.0968,0.19012 -0.0172,0.11062 -0.0172,0.43554 z"
         id="path11"
         style="stroke-width:0.0186558" /></g><path
       d="m 43.549551,85.781998 v 0.14422 q -0.88533,0.22834 -0.88533,1.6745 0,1.56634 1.10166,1.84274 v -2.32746 q 0,-0.50875 0.0641,-0.74111 0.0641,-0.23635 0.28042,-0.41261 0.22033,-0.18026 0.5288,-0.18026 0.54081,0 1.00148,0.50875 0.4647,0.50875 0.4647,1.32597 0,0.76513 -0.4767,1.36604 -0.47271,0.6009 -1.43013,0.68502 v 1.64647 h -0.43265 v -1.64647 q -0.83324,-0.0721 -1.33799,-0.62092 -0.50076,-0.55282 -0.50076,-1.43414 0,-0.79317 0.45669,-1.29393 0.45669,-0.50475 1.16574,-0.53679 z m 0.64896,3.66146 q 1.26189,-0.18829 1.26189,-1.63044 0,-0.66498 -0.2724,-1.11365 -0.2684,-0.45268 -0.63295,-0.45268 -0.13219,0 -0.22433,0.0961 -0.0881,0.0921 -0.11222,0.22034 -0.02,0.12819 -0.02,0.50475 z"
       id="path27"
       style="stroke-width:0.0216206" /><text
       xml:space="preserve"
       style="font-weight:bold;font-size:7.16835px;line-height:1;font-family:Ubuntu;-inkscape-font-specification:'Ubuntu Bold';writing-mode:lr-tb;direction:ltr;fill:#008000;stroke:none;stroke-width:1.07525"
       x="27.738752"
       y="86.024002"
       id="text28"><tspan
         sodipodi:role="line"
         id="tspan28"
         style="fill:#008000;stroke:none;stroke-width:1.07525"
         x="27.738752"
         y="86.024002">0</tspan></text><text
       xml:space="preserve"
       style="font-weight:bold;font-size:7.16835px;line-height:1;font-family:Ubuntu;-inkscape-font-specification:'Ubuntu Bold';writing-mode:lr-tb;direction:ltr;fill:#000080;stroke:none;stroke-width:1.07525"
       x="27.738752"
       y="108.21365"
       id="text29"><tspan
         sodipodi:role="line"
         id="tspan29"
         style="fill:#000080;stroke:none;stroke-width:1.07525"
         x="27.738752"
         y="108.21365">1</tspan></text><text
       xml:space="preserve"
       style="font-weight:bold;font-size:7.16835px;line-height:1;font-family:Ubuntu;-inkscape-font-specification:'Ubuntu Bold';writing-mode:lr-tb;direction:ltr;fill:#000080;stroke:none;stroke-width:1.07525"
       x="126.9714"
       y="74.741028"
       id="text30"><tspan
         sodipodi:role="line"
         id="tspan30"
         style="fill:#000080;stroke:none;stroke-width:1.07525"
         x="126.9714"
         y="74.741028">1</tspan></text><text
       xml:space="preserve"
       style="font-weight:bold;font-size:7.16835px;line-height:1;font-family:Ubuntu;-inkscape-font-specification:'Ubuntu Bold';writing-mode:lr-tb;direction:ltr;fill:#008000;stroke:none;stroke-width:1.07525"
       x="103.43114"
       y="74.748199"
       id="text31"><tspan
         sodipodi:role="line"
         id="tspan31"
         style="fill:#008000;stroke:none;stroke-width:1.07525"
         x="103.43114"
         y="74.748199">0</tspan></text><path
       style="fill:#000080;stroke:#008000;stroke-width:0.79375;stroke-dasharray:none;stroke-dashoffset:0"
       d="M 89.374632,76.933188 H 115.66944"
       id="path31" /><path
       style="fill:#000080;stroke:#000000;stroke-width:0.79375;stroke-dasharray:none;stroke-dashoffset:0"
       d="m 115.66944,76.933188 v -9.35199"
       id="path33" /><circle
       style="fill:#000000;stroke:none;stroke-width:0.79375"
       id="circle33"
       cx="89.374641"
       cy="76.933182"
       r="1.2740114" /><circle
       style="fill:#000000;stroke:none;stroke-width:0.79375"
       id="circle34"
       cx="115.66943"
       cy="76.933182"
       r="1.2740114" /><path
       style="fill:#000080;stroke:#000080;stroke-width:0.79375;stroke-dasharray:none;stroke-dashoffset:0"
       d="m 115.27257,67.581198 h 26.2948"
       id="path32" /><circle
       style="fill:#000000;stroke:none;stroke-width:0.79375"
       id="circle35"
       cx="51.444618"
       cy="93.895447"
       r="1.2740114" /><circle
       style="fill:#000000;stroke:none;stroke-width:0.79375"
       id="circle36"
       cx="9.0019283"
       cy="94.478745"
       r="1.2740114" /><g
       id="g38"
       transform="translate(-24.233903,-105.33731)"><text
         xml:space="preserve"
         style="font-weight:bold;font-size:5.29167px;line-height:1;font-family:Ubuntu;-inkscape-font-specification:'Ubuntu Bold';writing-mode:lr-tb;direction:ltr;fill:#000000;stroke:none;stroke-width:0.79375"
         x="111.76851"
         y="189.62202"
         id="text37"><tspan
           sodipodi:role="line"
           id="tspan37"
           style="fill:#000000;stroke:none;stroke-width:0.79375"
           x="111.76851"
           y="189.62202">=0</tspan></text><path
         d="m 108.75503,185.45777 v 0.14422 q -0.88533,0.22834 -0.88533,1.6745 0,1.56634 1.10166,1.84274 v -2.32746 q 0,-0.50875 0.0641,-0.74111 0.0641,-0.23635 0.28042,-0.41261 0.22033,-0.18026 0.5288,-0.18026 0.54081,0 1.00148,0.50875 0.4647,0.50875 0.4647,1.32597 0,0.76513 -0.4767,1.36604 -0.47271,0.6009 -1.43013,0.68502 v 1.64647 h -0.43265 v -1.64647 q -0.83324,-0.0721 -1.33799,-0.62092 -0.50076,-0.55282 -0.50076,-1.43414 0,-0.79317 0.45669,-1.29393 0.45669,-0.50475 1.16574,-0.53679 z m 0.64896,3.66146 q 1.26189,-0.18829 1.26189,-1.63044 0,-0.66498 -0.2724,-1.11365 -0.2684,-0.45268 -0.63295,-0.45268 -0.13219,0 -0.22433,0.0961 -0.0881,0.0921 -0.11222,0.22034 -0.02,0.12819 -0.02,0.50475 z"
         id="path37"
         style="stroke-width:0.0216206" /></g><g
       id="g39"
       transform="translate(72.451272,-103.64138)"><text
         xml:space="preserve"
         style="font-weight:bold;font-size:4.56604px;line-height:1;font-family:Ubuntu;-inkscape-font-specification:'Ubuntu Bold';writing-mode:lr-tb;direction:ltr;fill:#000000;stroke:none;stroke-width:0.684906"
         x="40.985947"
         y="187.73438"
         id="text38"><tspan
           sodipodi:role="line"
           id="tspan38"
           style="fill:#000000;stroke:none;stroke-width:0.684906"
           x="40.985947"
           y="187.73438">=180</tspan></text><path
         d="m 38.38568,184.14115 v 0.12444 q -0.76392,0.19703 -0.76392,1.44488 0,1.35156 0.95058,1.59006 v -2.00831 q 0,-0.43899 0.0553,-0.63948 0.0553,-0.20395 0.24197,-0.35603 0.19012,-0.15555 0.45629,-0.15555 0.46665,0 0.86415,0.43899 0.40097,0.43899 0.40097,1.14415 0,0.66021 -0.41132,1.17871 -0.4079,0.51851 -1.23403,0.59109 v 1.42069 h -0.37332 v -1.42069 q -0.71898,-0.0622 -1.15452,-0.53577 -0.43209,-0.47702 -0.43209,-1.23748 0,-0.68441 0.39407,-1.1165 0.39407,-0.43554 1.00588,-0.46319 z m 0.55997,3.15938 q 1.08885,-0.16247 1.08885,-1.40687 0,-0.5738 -0.23505,-0.96094 -0.23159,-0.3906 -0.54615,-0.3906 -0.11407,0 -0.19357,0.083 -0.076,0.0795 -0.0968,0.19012 -0.0172,0.11062 -0.0172,0.43554 z"
         id="path38"
         style="stroke-width:0.0186558" /></g><text
       xml:space="preserve"
       style="font-weight:bold;font-size:5.29167px;line-height:1;font-family:Ubuntu;-inkscape-font-specification:'Ubuntu Bold';writing-mode:lr-tb;direction:ltr;fill:#0000ff;stroke:none;stroke-width:0.79375"
       x="96.387947"
       y="49.966354"
       id="text39"><tspan
         sodipodi:role="line"
         id="tspan39"
         style="fill:#0000ff;stroke:none;stroke-width:0.79375"
         x="96.387947"
         y="49.966354">Señal periódica</tspan></text></g></svg>
